<svg width="124" height="124" viewBox="0 0 124 124" fill="none" xmlns="http://www.w3.org/2000/svg">
<path d="M63.9407 116.209C89.9428 116.209 111.023 95.1288 111.023 69.0338C111.023 42.9387 89.85 21.8584 63.9407 21.8584C37.9385 21.8584 16.8582 42.9387 16.8582 69.0338C16.8582 95.1288 37.9385 116.209 63.9407 116.209Z" fill="#F1F3F9" stroke="#D6DCE8" stroke-width="2" stroke-miterlimit="10"/>
<path d="M107.587 38.2026C109.69 38.2026 111.394 36.4979 111.394 34.3951C111.394 32.2923 109.69 30.5876 107.587 30.5876C105.484 30.5876 103.779 32.2923 103.779 34.3951C103.779 36.4979 105.484 38.2026 107.587 38.2026Z" fill="#F1F3F9"/>
<path d="M113.158 23.3442C114.594 23.3442 115.759 22.1801 115.759 20.744C115.759 19.308 114.594 18.1438 113.158 18.1438C111.722 18.1438 110.558 19.308 110.558 20.744C110.558 22.1801 111.722 23.3442 113.158 23.3442Z" fill="#F1F3F9"/>
<path d="M12.9574 44.7031C14.3935 44.7031 15.5576 43.539 15.5576 42.1029C15.5576 40.6668 14.3935 39.5027 12.9574 39.5027C11.5213 39.5027 10.3572 40.6668 10.3572 42.1029C10.3572 43.539 11.5213 44.7031 12.9574 44.7031Z" fill="#F1F3F9"/>
<path d="M27.2584 116.952C29.9254 116.952 32.0874 114.79 32.0874 112.123C32.0874 109.456 29.9254 107.294 27.2584 107.294C24.5914 107.294 22.4294 109.456 22.4294 112.123C22.4294 114.79 24.5914 116.952 27.2584 116.952Z" fill="#F1F3F9"/>
<path d="M122 81.8036C122 93.731 112.354 103.377 100.323 103.377C100.116 103.377 98.3526 103.377 85.3881 103.377C76.3647 103.377 61.9481 103.377 38.9231 103.377H27.9291C13.5125 103.688 2 92.1753 2 78.2773C2 64.2755 13.6162 52.6593 28.2403 53.3853C40.79 14.1805 98.2489 19.6775 103.124 60.2306C113.91 61.5789 122 70.706 122 81.8036Z" fill="white" stroke="#D6DCE8" stroke-width="2" stroke-miterlimit="10"/>
<path d="M102.813 60.3344C101.983 60.2307 101.153 60.2307 100.323 60.2307C96.0711 60.2307 92.0262 61.4753 88.6035 63.6534" fill="white"/>
<path d="M102.813 60.3344C101.983 60.2307 101.153 60.2307 100.323 60.2307C96.0711 60.2307 92.0262 61.4753 88.6035 63.6534" stroke="#D6DCE8" stroke-width="2" stroke-miterlimit="10" stroke-linecap="round"/>
<path d="M28.2399 53.3853C26.9953 57.119 26.373 61.0603 26.373 65.2089C26.373 66.8684 26.4768 68.4241 26.6842 69.9799" fill="white"/>
<path d="M28.2399 53.3853C26.9953 57.119 26.373 61.0603 26.373 65.2089C26.373 66.8684 26.4768 68.4241 26.6842 69.9799" stroke="#D6DCE8" stroke-width="2" stroke-miterlimit="10" stroke-linecap="round" stroke-linejoin="round"/>
<path d="M54.5781 65.9787L56.3934 64.1593C56.9228 63.6286 56.9228 62.7189 56.3934 62.1883C55.8639 61.6576 54.9563 61.6576 54.4268 62.1883L52.6115 64.0077L50.7963 62.1883C50.2668 61.6576 49.3592 61.6576 48.8297 62.1883C48.3003 62.7189 48.3003 63.6286 48.8297 64.1593L50.645 65.9787L48.8297 67.7981C48.3003 68.3287 48.3003 69.2384 48.8297 69.7691C49.1323 70.0723 49.4348 70.1481 49.813 70.1481C50.1912 70.1481 50.4937 69.9965 50.7963 69.7691L52.6115 67.9497L54.4268 69.7691C54.7294 70.0723 55.0319 70.1481 55.4101 70.1481C55.7883 70.1481 56.0908 69.9965 56.3934 69.7691C56.9228 69.2384 56.9228 68.3287 56.3934 67.7981L54.5781 65.9787Z" fill="#ADB5BD"/>
<path d="M73.8334 65.9787L75.8504 64.1593C76.4387 63.6286 76.4387 62.7189 75.8504 62.1883C75.2621 61.6576 74.2536 61.6576 73.6653 62.1883L71.6484 64.0077L69.6314 62.1883C69.0431 61.6576 68.0346 61.6576 67.4463 62.1883C66.8581 62.7189 66.8581 63.6286 67.4463 64.1593L69.4633 65.9787L67.4463 67.7981C66.8581 68.3287 66.8581 69.2384 67.4463 69.7691C67.7825 70.0723 68.1187 70.1481 68.5389 70.1481C68.9591 70.1481 69.2952 69.9965 69.6314 69.7691L71.6484 67.9497L73.6653 69.7691C74.0015 70.0723 74.3377 70.1481 74.7579 70.1481C75.1781 70.1481 75.5142 69.9965 75.8504 69.7691C76.4387 69.2384 76.4387 68.3287 75.8504 67.7981L73.8334 65.9787Z" fill="#ADB5BD"/>
<path fill-rule="evenodd" clip-rule="evenodd" d="M21.256 29.336C21.4737 28.4797 22.3443 27.9619 23.2007 28.1796L29.2556 29.7187C30.1119 29.9363 30.6297 30.807 30.412 31.6633C30.1943 32.5196 29.3237 33.0374 28.4674 32.8197L22.4124 31.2806C21.5561 31.0629 21.0384 30.1923 21.256 29.336Z" fill="#A2ABBE"/>
<path fill-rule="evenodd" clip-rule="evenodd" d="M26.4015 12.3074C27.1325 11.8112 28.1274 12.0016 28.6237 12.7326L35.8619 23.3963C36.3582 24.1274 36.1678 25.1223 35.4367 25.6185C34.7057 26.1147 33.7108 25.9244 33.2146 25.1933L25.9763 14.5296C25.4801 13.7986 25.6704 12.8037 26.4015 12.3074Z" fill="#A2ABBE"/>
<path fill-rule="evenodd" clip-rule="evenodd" d="M39.8284 7.49802C40.6952 7.32646 41.5369 7.89002 41.7084 8.75676L44.2109 21.3997C44.3824 22.2665 43.8189 23.1082 42.9521 23.2797C42.0854 23.4513 41.2437 22.8877 41.0721 22.021L38.5697 9.37802C38.3981 8.51128 38.9617 7.66958 39.8284 7.49802Z" fill="#A2ABBE"/>
<rect x="52.1467" y="78.5061" width="21.3589" height="2.78595" rx="1.39297" fill="#ADB5BD"/>
<path d="M113.99 38.6343C113.594 40.3028 113 41.9071 112.274 43.383C110.36 46.8483 107.523 49.6718 103.959 51.4045C100.264 53.2654 95.9083 53.9072 91.4868 53.0729C81.1922 50.9553 74.5271 41.2012 76.7048 31.1262C78.8825 21.0513 88.8472 14.57 99.2078 16.6876C102.903 17.4577 106.137 19.1903 108.843 21.693C113.33 26.185 115.244 32.538 113.99 38.6343Z" fill="#F1F3F5" stroke="#D6DCE8" stroke-width="2" stroke-miterlimit="10"/>
<path d="M92.016 25.7415L92.0166 25.7495L92.0172 25.7575L92.7711 35.1095C92.8506 36.4423 93.8879 37.7168 95.3289 37.7168C96.77 37.7168 97.8073 36.4423 97.8867 35.1095L98.6407 25.7575L98.6414 25.7483L98.642 25.7392C98.7693 23.6926 97.4023 21.7871 95.3289 21.7871C93.2444 21.7871 91.8885 23.7636 92.016 25.7415Z" fill="white" stroke="#ADB5BD" stroke-width="2"/>
<path d="M95.3289 40.3601C93.4869 40.3601 92.0073 41.8397 92.0073 43.6817C92.0073 45.5238 93.4869 47.0034 95.3289 47.0034C97.171 47.0034 98.6506 45.5238 98.6506 43.6817C98.6506 41.8397 97.171 40.3601 95.3289 40.3601Z" fill="white" stroke="#ADB5BD" stroke-width="2"/>
</svg>
