<svg width="24" height="24" viewBox="0 0 24 24" fill="none" xmlns="http://www.w3.org/2000/svg">
<path d="M19.9602 8.9599C19.2902 8.2199 18.2802 7.7899 16.8802 7.6399V6.8799C16.8802 5.5099 16.3002 4.1899 15.2802 3.2699C14.2502 2.3299 12.9102 1.8899 11.5202 2.0199C9.13023 2.2499 7.12023 4.5599 7.12023 7.0599V7.6399C5.72023 7.7899 4.71023 8.2199 4.04023 8.9599C3.07023 10.0399 3.10023 11.4799 3.21023 12.4799L3.91023 18.0499C4.12023 19.9999 4.91023 21.9999 9.21023 21.9999H14.7902C19.0902 21.9999 19.8802 19.9999 20.0902 18.0599L20.7902 12.4699C20.9002 11.4799 20.9302 10.0399 19.9602 8.9599ZM11.6602 3.4099C12.6602 3.3199 13.6102 3.6299 14.3502 4.2999C15.0802 4.9599 15.4902 5.8999 15.4902 6.8799V7.5799H8.51023V7.0599C8.51023 5.2799 9.98023 3.5699 11.6602 3.4099ZM12.0002 18.5799C9.91023 18.5799 8.21023 16.8799 8.21023 14.7899C8.21023 12.6999 9.91023 10.9999 12.0002 10.9999C14.0902 10.9999 15.7902 12.6999 15.7902 14.7899C15.7902 16.8799 14.0902 18.5799 12.0002 18.5799Z" fill="#868E96"/>
<path d="M10.9999 16.5801C10.7499 16.5801 10.4999 16.4501 10.3599 16.2201C10.1499 15.8701 10.2599 15.4001 10.6199 15.1901L11.5099 14.6601V13.5801C11.5099 13.1701 11.8499 12.8301 12.2599 12.8301C12.6699 12.8301 12.9999 13.1601 12.9999 13.5801V15.0801C12.9999 15.3401 12.8599 15.5901 12.6399 15.7201L11.3899 16.4701C11.2699 16.5401 11.1299 16.5801 10.9999 16.5801Z" fill="#868E96"/>
</svg>
