<svg width="24" height="24" viewBox="0 0 24 24" fill="none" xmlns="http://www.w3.org/2000/svg">
<path d="M5.18988 5.88C5.13048 5.88 5.05825 5.85127 5.01344 5.80645C4.9187 5.71171 4.9187 5.54829 5.01344 5.45356L8.64344 1.82356C8.73817 1.72882 8.90159 1.72882 8.99633 1.82356C9.09107 1.91829 9.09107 2.08171 8.99633 2.17645L5.37365 5.79913C5.3074 5.85884 5.23848 5.88 5.18988 5.88Z" fill="white" stroke="white"/>
<path d="M18.8101 5.88C18.7456 5.88 18.685 5.85774 18.6337 5.80645L15.0037 2.17645C14.9089 2.08171 14.9089 1.91829 15.0037 1.82356C15.0984 1.72882 15.2618 1.72882 15.3566 1.82356L18.9866 5.45356C19.0813 5.54829 19.0813 5.71171 18.9866 5.80645C18.9417 5.85127 18.8695 5.88 18.8101 5.88Z" fill="white" stroke="white"/>
<path d="M4 10.1V10.1L3.99286 10.1001C3.26027 10.1105 2.68313 10.086 2.27355 9.67645L2.27357 9.67643L2.26965 9.67259C1.95192 9.36177 1.75 8.82776 1.75 7.85001C1.75 7.22219 1.86475 6.79105 2.02157 6.49295C2.17587 6.19963 2.38382 6.01005 2.6167 5.88146C3.1098 5.60916 3.72272 5.60001 4.22 5.60001H19.78C20.2773 5.60001 20.8902 5.60916 21.3833 5.88146C21.6162 6.01005 21.8241 6.19963 21.9784 6.49295C22.1353 6.79105 22.25 7.22219 22.25 7.85001C22.25 8.83689 22.0485 9.3614 21.7304 9.67259L21.7303 9.67257L21.7264 9.67645C21.3645 10.0384 20.8606 10.1 20.21 10.1H20.2096H20.2092H20.2088H20.2084H20.2079H20.2075H20.2071H20.2067H20.2063H20.2059H20.2055H20.2051H20.2047H20.2043H20.2038H20.2034H20.203H20.2026H20.2022H20.2018H20.2014H20.201H20.2006H20.2002H20.1997H20.1993H20.1989H20.1985H20.1981H20.1977H20.1973H20.1969H20.1965H20.1961H20.1956H20.1952H20.1948H20.1944H20.194H20.1936H20.1932H20.1928H20.1924H20.192H20.1915H20.1911H20.1907H20.1903H20.1899H20.1895H20.1891H20.1887H20.1883H20.1879H20.1874H20.187H20.1866H20.1862H20.1858H20.1854H20.185H20.1846H20.1842H20.1838H20.1833H20.1829H20.1825H20.1821H20.1817H20.1813H20.1809H20.1805H20.1801H20.1796H20.1792H20.1788H20.1784H20.178H20.1776H20.1772H20.1768H20.1764H20.176H20.1755H20.1751H20.1747H20.1743H20.1739H20.1735H20.1731H20.1727H20.1723H20.1719H20.1714H20.171H20.1706H20.1702H20.1698H20.1694H20.169H20.1686H20.1682H20.1678H20.1673H20.1669H20.1665H20.1661H20.1657H20.1653H20.1649H20.1645H20.1641H20.1637H20.1632H20.1628H20.1624H20.162H20.1616H20.1612H20.1608H20.1604H20.16H20.1595H20.1591H20.1587H20.1583H20.1579H20.1575H20.1571H20.1567H20.1563H20.1559H20.1554H20.155H20.1546H20.1542H20.1538H20.1534H20.153H20.1526H20.1522H20.1518H20.1513H20.1509H20.1505H20.1501H20.1497H20.1493H20.1489H20.1485H20.1481H20.1477H20.1472H20.1468H20.1464H20.146H20.1456H20.1452H20.1448H20.1444H20.144H20.1436H20.1431H20.1427H20.1423H20.1419H20.1415H20.1411H20.1407H20.1403H20.1399H20.1395H20.139H20.1386H20.1382H20.1378H20.1374H20.137H20.1366H20.1362H20.1358H20.1354H20.1349H20.1345H20.1341H20.1337H20.1333H20.1329H20.1325H20.1321H20.1317H20.1312H20.1308H20.1304H20.13H20.1296H20.1292H20.1288H20.1284H20.128H20.1276H20.1271H20.1267H20.1263H20.1259H20.1255H20.1251H20.1247H20.1243H20.1239H20.1235H20.123H20.1226H20.1222H20.1218H20.1214H20.121H20.1206H20.1202H20.1198H20.1194H20.1189H20.1185H20.1181H20.1177H20.1173H20.1169H20.1165H20.1161H20.1157H20.1153H20.1148H20.1144H20.114H20.1136H20.1132H20.1128H20.1124H20.112H20.1116H20.1112H20.1107H20.1103H20.1099H20.1095H20.1091H20.1087H20.1083H20.1079H20.1075H20.107H20.1066H20.1062H20.1058H20.1054H20.105H20.1046H20.1042H20.1038H20.1034H20.1029H20.1025H20.1021H20.1017H20.1013H20.1009H20.1005H20.1001H20.0997H20.0993H20.0988H20.0984H20.098H20.0976H20.0972H20.0968H20.0964H20.096H20.0956H20.0952H20.0947H20.0943H20.0939H20.0935H20.0931H20.0927H20.0923H20.0919H20.0915H20.0911H20.0906H20.0902H20.0898H20.0894H20.089H20.0886H20.0882H20.0878H20.0874H20.087H20.0865H20.0861H20.0857H20.0853H20.0849H20.0845H20.0841H20.0837H20.0833H20.0829H20.0824H20.082H20.0816H20.0812H20.0808H20.0804H20.08H20.0796H20.0792H20.0788H20.0783H20.0779H20.0775H20.0771H20.0767H20.0763H20.0759H20.0755H20.0751H20.0746H20.0742H20.0738H20.0734H20.073H20.0726H20.0722H20.0718H20.0714H20.071H20.0705H20.0701H20.0697H20.0693H20.0689H20.0685H20.0681H20.0677H20.0673H20.0669H20.0664H20.066H20.0656H20.0652H20.0648H20.0644H20.064H20.0636H20.0632H20.0628H20.0623H20.0619H20.0615H20.0611H20.0607H20.0603H20.0599H20.0595H20.0591H20.0587H20.0582H20.0578H20.0574H20.057H20.0566H20.0562H20.0558H20.0554H20.055H20.0546H20.0541H20.0537H20.0533H20.0529H20.0525H20.0521H20.0517H20.0513H20.0509H20.0504H20.05H20.0496H20.0492H20.0488H20.0484H20.048H20.0476H20.0472H20.0468H20.0463H20.0459H20.0455H20.0451H20.0447H20.0443H20.0439H20.0435H20.0431H20.0427H20.0422H20.0418H20.0414H20.041H20.0406H20.0402H20.0398H20.0394H20.039H20.0386H20.0381H20.0377H20.0373H20.0369H20.0365H20.0361H20.0357H20.0353H20.0349H20.0345H20.034H20.0336H20.0332H20.0328H20.0324H20.032H20.0316H20.0312H20.0308H20.0304H20.0299H20.0295H20.0291H20.0287H20.0283H20.0279H20.0275H20.0271H20.0267H20.0262H20.0258H20.0254H20.025H20.0246H20.0242H20.0238H20.0234H20.023H20.0226H20.0221H20.0217H20.0213H20.0209H20.0205H20.0201H20.0197H20.0193H20.0189H20.0185H20.018H20.0176H20.0172H20.0168H20.0164H20.016H20.0156H20.0152H20.0148H20.0144H20.0139H20.0135H20.0131H20.0127H20.0123H20.0119H20.0115H20.0111H20.0107H20.0103H20.0098H20.0094H20.009H20.0086H20.0082H20.0078H20.0074H20.007H20.0066H20.0062H20.0057H20.0053H20.0049H20.0045H20.0041H20.0037H20.0033H20.0029H20.0025H20.0021H20.0016H20.0012H20.0008H20.0004H20H19.77H4ZM2.59037 9.2954L2.60891 9.31702L2.62977 9.3364C2.75093 9.4489 2.89431 9.50045 2.99316 9.52747C3.1 9.55667 3.21313 9.57231 3.31754 9.58173C3.52019 9.60003 3.75646 9.60002 3.96618 9.60001H3.98H4.22H20.0045C20.2247 9.60487 20.4672 9.60823 20.6765 9.5892C20.7828 9.57954 20.8983 9.56273 21.0081 9.53029C21.1121 9.49955 21.2548 9.44231 21.3736 9.32356C21.5921 9.10506 21.74 8.68712 21.74 7.85001C21.74 7.30443 21.6899 6.74452 21.2595 6.40755C21.0532 6.24609 20.8093 6.17679 20.5756 6.14189C20.3421 6.10704 20.0691 6.10001 19.77 6.10001H4.22C3.92094 6.10001 3.6479 6.10704 3.41444 6.14189C3.18071 6.17679 2.93678 6.24609 2.73054 6.40755C2.30009 6.74452 2.25 7.30443 2.25 7.85001C2.25 8.71481 2.41906 9.09554 2.59037 9.2954Z" fill="white" stroke="white"/>
<path d="M9.76001 17.8C9.62615 17.8 9.51001 17.6839 9.51001 17.55V14C9.51001 13.8661 9.62615 13.75 9.76001 13.75C9.89387 13.75 10.01 13.8661 10.01 14V17.55C10.01 17.6895 9.89822 17.8 9.76001 17.8Z" fill="white" stroke="white"/>
<path d="M14.3601 18.3C13.9501 18.3 13.6101 17.96 13.6101 17.55V14C13.6101 13.59 13.9501 13.25 14.3601 13.25C14.7701 13.25 15.1101 13.59 15.1101 14V17.55C15.1101 17.97 14.7701 18.3 14.3601 18.3Z" fill="white"/>
<path d="M14.89 22.75H8.86C5.28 22.75 4.48 20.62 4.17 18.77L2.76 10.12C2.69 9.71 2.97 9.33 3.38 9.26C3.79 9.19 4.17 9.47 4.24 9.88L5.65 18.52C5.94 20.29 6.54 21.25 8.86 21.25H14.89C17.46 21.25 17.75 20.35 18.08 18.61L19.76 9.86C19.84 9.45 20.23 9.18 20.64 9.27C21.05 9.35 21.31 9.74 21.23 10.15L19.55 18.9C19.16 20.93 18.51 22.75 14.89 22.75Z" fill="white"/>
</svg>
