<svg width="28" height="28" viewBox="0 0 28 28" fill="none" xmlns="http://www.w3.org/2000/svg">
<path fill-rule="evenodd" clip-rule="evenodd" d="M13.2347 4.58772C9.51574 4.88612 6.40471 7.33932 5.151 10.6979L9.80673 12.1431L13.2347 9.39509V4.58772ZM4.55762 13.9998C4.55762 13.3745 4.61841 12.7633 4.73441 12.1719L9.28509 13.5846L10.628 17.9333L8.25439 21.4937C6.0066 19.7676 4.55762 17.0529 4.55762 13.9998ZM9.54049 22.325C10.8687 23.0381 12.3873 23.4425 14.0003 23.4425C15.6133 23.4425 17.1319 23.0381 18.4601 22.325L16.1426 18.8488H11.858L9.54049 22.325ZM17.3726 17.9332L19.7463 21.4937C21.9941 19.7676 23.443 17.0529 23.443 13.9998C23.443 13.3745 23.3822 12.7633 23.2662 12.1719L18.7156 13.5846L17.3726 17.9332ZM14.766 4.58772C18.4849 4.88612 21.5959 7.33932 22.8496 10.6979L18.1939 12.1431L14.766 9.3951V4.58772ZM3.02637 13.9998C3.02637 7.93909 7.93958 3.02588 14.0003 3.02588C20.0611 3.02588 24.9743 7.93909 24.9743 13.9998C24.9743 20.0606 20.0611 24.9738 14.0003 24.9738C7.93958 24.9738 3.02637 20.0606 3.02637 13.9998ZM10.8022 13.3076L12.0405 17.3175H15.9601L17.1985 13.3076L14.0003 10.7439L10.8022 13.3076Z" fill="white"/>
</svg>
