<svg width="28" height="28" viewBox="0 0 28 28" fill="none" xmlns="http://www.w3.org/2000/svg">
<path fill-rule="evenodd" clip-rule="evenodd" d="M14.0003 24.9738C11.7948 24.9738 9.74132 24.3232 8.0212 23.2035L10.8745 20.324L9.54049 22.325C10.8687 23.0381 12.3873 23.4425 14.0003 23.4425C15.6133 23.4425 17.1319 23.0381 18.4601 22.325L16.1426 18.8488H12.3364L13.8537 17.3175H15.9601L16.9138 14.2295L19.3311 11.7901L22.8496 10.6979C22.634 10.1204 22.3636 9.56961 22.0445 9.05197L23.149 7.93728C24.3024 9.67426 24.9743 11.7586 24.9743 13.9998C24.9743 20.0606 20.0611 24.9738 14.0003 24.9738ZM17.4978 11.5851L16.4086 12.6744L11.9756 17.1074L9.58474 19.4981L7.88655 21.1964L6.80073 22.2822L4.33337 24.7495L3.25061 23.6668L5.71798 21.1995L6.8038 20.1136L10.2402 16.6773L11.4646 15.4528L15.2065 11.7108L16.2959 10.6215L20.1141 6.80331L21.2 5.71749L23.6673 3.25013L24.75 4.33288L22.2827 6.80025L21.1969 7.88607L17.4978 11.5851ZM10.8022 13.3076L13.5161 11.132L15.0286 9.60569L14.7659 9.3951V4.58772C16.2134 4.70386 17.5689 5.14644 18.7584 5.84179L19.8664 4.72367C18.1697 3.64842 16.1578 3.02588 14.0003 3.02588C7.93958 3.02588 3.02637 7.93909 3.02637 13.9998C3.02637 16.193 3.66972 18.2359 4.77798 19.9501L5.88597 18.832C5.04233 17.4183 4.55762 15.7657 4.55762 13.9998C4.55762 13.3745 4.61841 12.7633 4.73441 12.1719L9.28509 13.5846L9.71293 14.97L10.9348 13.737L10.8022 13.3076ZM13.2347 4.58772C9.51574 4.88612 6.40471 7.33932 5.151 10.6979L9.80673 12.1431L13.2347 9.39509V4.58772ZM17.3726 17.9332L19.7463 21.4937C21.9941 19.7676 23.443 17.0529 23.443 13.9998C23.443 13.3745 23.3823 12.7633 23.2662 12.1719L18.7156 13.5846L17.3726 17.9332Z" fill="white"/>
</svg>
