<svg width="20" height="20" viewBox="0 0 20 20" fill="none" xmlns="http://www.w3.org/2000/svg">
<g clip-path="url(#clip0_1089_11890)">
<path d="M18.0557 10C18.0557 14.4489 14.4491 18.0556 10.0001 18.0556C5.55121 18.0556 1.94458 14.4489 1.94458 10C1.94458 5.55109 5.55121 1.94446 10.0001 1.94446C14.4491 1.94446 18.0557 5.55109 18.0557 10Z" fill="white"/>
<path d="M16.1112 8.33335L16.6668 5.55558L17.7779 8.05558L18.0557 10.5556L16.1112 8.33335ZM3.88902 8.33335L3.33347 5.55558L2.22236 8.05558L1.94458 10.5556L3.88902 8.33335ZM3.33347 14.4445L6.38902 15L8.05569 17.7778L5.27791 16.6667L3.33347 14.4445ZM16.6668 14.4445L13.6112 15L11.9446 17.7778L14.7224 16.6667L16.6668 14.4445ZM6.94458 2.50002L10.0001 3.88891L13.0557 2.50002L10.0001 1.66669L6.94458 2.50002ZM7.22236 9.44447L10.0001 7.22224L12.7779 9.44447L11.9446 12.7778H8.05569L7.22236 9.44447Z" fill="#ED1E24"/>
<path d="M10.0001 1.66669C5.39776 1.66669 1.66675 5.39769 1.66675 10C1.66675 14.6023 5.39776 18.3334 10.0001 18.3334C14.6024 18.3334 18.3334 14.6023 18.3334 10C18.3283 5.39988 14.6002 1.67183 10.0001 1.66669ZM16.4537 5.66394L15.8761 8.11891L12.8335 9.13304L10.2779 7.08894V4.07686L13.1945 2.91026C14.515 3.50852 15.6433 4.46188 16.4537 5.66394ZM16.5 14.2626L13.7453 14.6976L12.2454 12.7161L13.0095 9.66054L16.0184 8.65776L17.742 10.7261C17.6246 11.989 17.198 13.2035 16.5001 14.2626L16.5 14.2626ZM6.26706 14.6995L3.50008 14.2626C2.80211 13.2033 2.37565 11.9884 2.25835 10.7253L3.98064 8.65697L6.98953 9.65974L7.75369 12.7169L6.26706 14.6995ZM2.22473 9.89641C2.23953 8.65722 2.55214 7.43977 3.13619 6.34676L3.58678 8.26335L2.22473 9.89641ZM8.27251 12.5L7.5356 9.54943L10.0001 7.57801L12.4651 9.55023L11.7277 12.5H8.27251ZM16.4134 8.26228L16.864 6.34561C17.448 7.43863 17.7607 8.6561 17.7754 9.8953L16.4134 8.26228ZM12.437 2.6153L10.0001 3.58995L7.55012 2.61981C9.13596 2.09127 10.8502 2.08968 12.437 2.6153ZM6.79237 2.91669L9.7223 4.07783V7.08894L7.16668 9.13304L4.12404 8.11891L3.54651 5.66394C4.35417 4.46618 5.47762 3.51533 6.79237 2.91669ZM3.96425 14.8983L6.22227 15.255L7.58782 17.3939C6.16559 16.9268 4.90772 16.0605 3.96425 14.8983ZM8.38428 17.6078L6.72671 15.0128L8.19453 13.0556H11.8056L13.2945 15.0222L11.8501 17.5536C10.7139 17.8334 9.52914 17.8524 8.38456 17.6092L8.38428 17.6078ZM12.6217 17.3219L13.8057 15.25L16.037 14.898C15.1406 16.0019 13.9596 16.8401 12.6217 17.322L12.6217 17.3219Z" fill="#FFD200"/>
</g>
<defs>
<clipPath id="clip0_1089_11890">
<rect width="16.6667" height="16.6667" fill="white" transform="translate(1.66675 1.66669)"/>
</clipPath>
</defs>
</svg>
