<svg width="28" height="28" viewBox="0 0 28 28" fill="none" xmlns="http://www.w3.org/2000/svg">
<g clip-path="url(#clip0_1148_110769)">
<path fill-rule="evenodd" clip-rule="evenodd" d="M13.5988 6.854H1.75L2.84681 12.4602L11.2763 13.7091L10.7038 14.3448L10.7455 14.6947C11.1562 18.1402 14.0327 20.8328 17.5491 20.8328C20.657 20.8328 23.2643 18.7303 24.1123 15.8626H24.2308C25.346 15.8626 26.25 14.9585 26.25 13.8434C26.25 12.7282 25.346 11.8242 24.2308 11.8242H24.1123C23.2643 8.9565 20.6569 6.854 17.5491 6.854H15.3363L13.5988 7.7421V6.854ZM24.3898 13.4052C24.3986 13.5502 24.403 13.6963 24.403 13.8434C24.403 13.9905 24.3986 14.1366 24.3898 14.2815C24.5689 14.2166 24.6968 14.0449 24.6968 13.8434C24.6968 13.6419 24.5689 13.4702 24.3898 13.4052ZM3.63651 8.4072H12.0456V10.2803L15.7103 8.4072H17.5491C20.4606 8.4072 22.8498 10.8248 22.8498 13.8434C22.8498 16.862 20.4606 19.2796 17.5491 19.2796C14.9694 19.2796 12.8006 17.3828 12.3389 14.8502L14.3681 12.597L4.16034 11.0847L3.63651 8.4072Z" fill="white"/>
</g>
<defs>
<clipPath id="clip0_1148_110769">
<rect width="24.5" height="24.5" fill="white" transform="translate(1.75 1.75)"/>
</clipPath>
</defs>
</svg>
