<svg width="195" height="72" viewBox="0 0 195 72" fill="none" xmlns="http://www.w3.org/2000/svg">
<g clip-path="url(#clip0_641_6655)">
<path d="M99.6589 39.4214C100.144 39.6955 103.63 42.6556 110.575 42.6556C116.419 42.6556 122.671 39.6587 124.62 39.7201C125.196 39.6899 125.771 39.7928 126.3 40.0208C127.118 40.3604 127.92 39.8633 127.472 39.0205C126.072 36.4028 123.693 34.4457 120.854 33.5769C119.052 33.0307 117.403 32.8466 116.548 33.7978C114.668 35.8824 111.278 38.4558 107.977 38.7934C107.709 38.822 106.51 38.9243 106.496 38.5888C106.481 38.3842 106.89 38.2431 107.314 38.2145C110.685 37.969 116.761 34.3604 120.101 27.3723C121.355 24.7518 122.352 22.209 124.528 21.1002C125.009 20.8691 125.025 19.9772 124.007 19.7337C123.295 19.5639 118.809 19.1384 113.68 21.8367C111.33 23.0743 111 24.1872 110.994 25.1548C111.014 32.4763 107.312 35.3832 105.88 36.2404C105.082 36.7191 104.335 36.9216 104.258 36.672C104.192 36.4674 104.403 36.3201 104.587 36.2097C109.028 33.5155 110.202 29.3689 110.239 25.1425C110.274 20.9673 108.721 17.3546 107.625 14.3924C107.463 13.971 106.944 12.2097 107.387 10.5731C107.717 9.34572 107.449 9.00204 106.806 9.00204C106.101 9.00204 105.17 10.1374 104.849 10.5302C104.597 10.8227 103.779 11.821 102.551 14.2636C100.097 19.0996 100.082 24.1544 100.082 24.7743C100.082 28.252 100.98 28.6468 102.439 29.3689C103.898 30.091 104.585 31.0177 104.587 32.0938C104.587 33.2005 103.818 34.344 102.439 34.7532C101.367 35.0661 100.684 34.9577 100.741 34.6713C100.786 34.4483 101.263 34.3931 101.402 34.3563C102.854 33.9594 103.824 33.2087 103.824 32.0897C103.824 30.6863 102.103 29.6614 99.6691 29.6614C97.2347 29.6614 95.5102 30.6843 95.5102 32.0917C95.5102 33.2107 96.4799 33.9615 97.9405 34.3563C98.0775 34.3952 98.5542 34.4483 98.5971 34.6713C98.6524 34.9495 97.9732 35.0682 96.8992 34.7532C95.5143 34.344 94.7472 33.1984 94.7472 32.0938C94.7472 30.9891 95.4427 30.0869 96.8992 29.3689C98.3557 28.6509 99.2559 28.2438 99.2559 24.7743C99.2559 24.1606 99.2374 19.0996 96.7908 14.2615C95.5634 11.821 94.7451 10.8227 94.4853 10.5281C94.1682 10.1354 93.2354 9 92.5296 9C91.8873 9 91.6193 9.35595 91.9507 10.5711C92.3905 12.2076 91.8709 13.971 91.7093 14.3904C90.6149 17.3546 89.0663 20.9652 89.099 25.1425C89.1338 29.3689 90.308 33.5135 94.7472 36.2076C94.9313 36.3181 95.142 36.4593 95.0765 36.67C94.9967 36.9216 94.2582 36.717 93.4563 36.2404C92.0244 35.3812 88.3196 32.4743 88.3421 25.1548C88.3421 24.1872 88.0046 23.0723 85.65 21.8346C80.5215 19.1364 76.0353 19.568 75.3295 19.7378C74.3066 19.9792 74.3271 20.8711 74.8078 21.1043C76.9926 22.211 77.9868 24.7538 79.2388 27.3744C82.5774 34.3583 88.649 37.9669 92.0223 38.2165C92.4314 38.2451 92.8406 38.3822 92.8406 38.5909C92.8263 38.9284 91.6275 38.8261 91.3636 38.7954C88.0639 38.4579 84.6701 35.8824 82.7901 33.7978C81.9371 32.8486 80.2903 33.0307 78.4942 33.5769C75.6545 34.4446 73.2743 36.4019 71.8743 39.0205C71.4284 39.8633 72.2262 40.3624 73.0445 40.0208C73.5732 39.7935 74.1471 39.6906 74.7219 39.7201C76.6817 39.6608 82.9272 42.6556 88.7738 42.6556C95.7107 42.6556 99.2068 39.6955 99.6855 39.4214" fill="white"/>
<path fill-rule="evenodd" clip-rule="evenodd" d="M72.357 55.8505C72.357 52.6531 69.5749 52.1478 67.5537 52.1478C66.259 52.1452 64.9755 52.3882 63.7712 52.8638C63.09 53.1645 63.0328 53.5409 63.0328 54.1608V62.3108C63.0328 62.7547 63.2516 62.7547 64.0433 62.7547C64.835 62.7547 65.0662 62.7547 65.0662 62.3108V54.7868C65.0662 54.1219 65.3014 53.2055 67.609 53.2055C69.7917 53.2055 70.3379 54.4963 70.3379 55.8505V62.3108C70.3379 62.7547 70.5568 62.7547 71.3464 62.7547C72.1361 62.7547 72.3693 62.7547 72.3693 62.3108L72.357 55.8505ZM117.567 62.2985C117.567 62.7404 117.786 62.7404 118.575 62.7404C119.365 62.7404 119.598 62.7404 119.598 62.2985V52.7002C119.598 51.9944 118.635 52.1724 118.139 52.4956C117.585 52.8556 117.567 53.0377 117.567 53.7373V62.2985ZM106.858 56.634C107.156 55.8689 109.079 50.8468 109.179 50.5624C109.208 50.4826 109.292 50.4826 109.325 50.5624C109.46 50.9163 111.401 55.8526 111.687 56.6156C111.751 56.7834 111.775 56.9204 111.554 56.9204H107.013C106.735 56.9204 106.808 56.7527 106.849 56.632M112.438 58.4854C113.128 60.1219 113.931 62.0694 114.075 62.4008C114.218 62.7322 114.24 62.7588 115.284 62.7609C116.575 62.7609 116.628 62.7199 116.378 62.1574C116.311 62.006 111.28 49.9201 111 49.2593C110.72 48.5986 110.591 48.5515 109.554 48.5515C108.517 48.5515 108.382 48.5802 108.095 49.2593C107.809 49.9385 102.754 62.0919 102.69 62.2454C102.486 62.7609 102.584 62.765 103.525 62.7609C104.36 62.7609 104.421 62.7363 104.575 62.3947L106.133 58.4956C106.225 58.2603 106.256 58.1663 106.532 58.1663C107.598 58.1663 110.636 58.1663 112.037 58.1663C112.305 58.1663 112.334 58.244 112.446 58.4915M119.751 49.2859C119.639 48.7561 119.052 48.4349 118.375 48.5781C117.698 48.7213 117.295 49.2511 117.405 49.7789C117.516 50.3067 118.107 50.6258 118.784 50.4847C119.461 50.3435 119.866 49.8117 119.751 49.2859ZM129.264 62.319C129.264 62.7629 129.481 62.7629 130.27 62.7629C131.06 62.7629 131.293 62.7629 131.293 62.319V48.5617C131.293 47.856 130.33 48.0319 129.835 48.3572C129.282 48.7172 129.262 48.8993 129.262 49.5989L129.264 62.319ZM135.728 49.29C135.616 48.7622 135.029 48.441 134.352 48.5842C133.674 48.7274 133.269 49.2552 133.382 49.783C133.494 50.3108 134.084 50.632 134.759 50.4888C135.434 50.3456 135.843 49.8178 135.728 49.29ZM133.541 62.3129C133.541 62.7547 133.76 62.7547 134.55 62.7547C135.34 62.7547 135.573 62.7547 135.573 62.3129L135.569 52.7043C135.569 52.0005 134.605 52.1765 134.108 52.4997C133.556 52.8618 133.535 53.0418 133.535 53.7414L133.541 62.3129ZM147.09 55.871C147.09 52.6736 144.308 52.1662 142.287 52.1662C140.992 52.1637 139.709 52.4066 138.504 52.8822C137.823 53.183 137.766 53.5594 137.766 54.1813V62.3313C137.766 62.7731 137.985 62.7731 138.776 62.7731C139.568 62.7731 139.789 62.7731 139.789 62.3313V54.795C139.789 54.1322 140.024 53.2136 142.332 53.2136C144.512 53.2136 145.059 54.5045 145.059 55.8608V62.321C145.059 62.7629 145.278 62.7629 146.067 62.7629C146.857 62.7629 147.09 62.7629 147.09 62.321V55.871ZM168.412 59.9317C168.334 56.3885 161.719 57.0391 161.719 54.5699C161.719 53.6044 162.709 53.1584 163.787 53.1584C165.333 53.1584 165.847 53.678 166.172 54.4308C166.253 54.6396 166.398 54.8173 166.586 54.9386C166.774 55.0599 166.996 55.1184 167.22 55.1059C167.328 55.1126 167.436 55.0965 167.537 55.0587C167.638 55.0208 167.731 54.9621 167.808 54.8863C167.885 54.8105 167.945 54.7193 167.985 54.6186C168.025 54.5179 168.043 54.41 168.038 54.3019C168.038 53.5184 166.95 52.1376 163.975 52.1172C161.52 52.1008 159.841 53.0398 159.839 54.9811C159.839 58.6286 166.459 57.8451 166.446 60.3776C166.446 61.423 165.471 61.9078 164.055 61.9221C162.639 61.9364 161.893 61.3637 161.483 60.3756C161.279 59.9665 161.023 59.6126 160.41 59.6228C160.29 59.6162 160.17 59.6354 160.059 59.679C159.947 59.7225 159.846 59.7895 159.763 59.8754C159.679 59.9612 159.615 60.064 159.574 60.1768C159.534 60.2895 159.518 60.4096 159.528 60.529C159.528 61.2716 160.821 63.0002 163.963 63.0002C166.536 63.0002 168.463 61.961 168.41 59.9317M41.1255 62.3026C41.1255 62.7445 41.3444 62.7445 42.134 62.7445C42.9237 62.7445 43.1569 62.7445 43.1569 62.3026V52.7043C43.1569 52.0005 42.1954 52.1765 41.6983 52.4997C41.1439 52.8618 41.1255 53.0418 41.1255 53.7414V62.3026ZM78.5759 62.9941C80.2636 63.0043 81.1187 62.7036 82.1313 62.2392C82.8902 61.8812 82.8902 61.4782 82.8902 61.0118V55.2286C82.8902 53.0254 81.0491 52.109 78.9584 52.1131C75.5319 52.1131 74.1674 53.5921 74.1142 54.5433C74.0836 55.0507 74.3884 55.4209 74.9796 55.4353C75.205 55.4426 75.4273 55.3809 75.6166 55.2584C75.806 55.136 75.9535 54.9585 76.0392 54.75C76.4606 53.766 77.1848 53.1564 78.6823 53.1564C79.8524 53.1564 80.9018 53.6923 80.8977 55.0854V55.6992C80.8977 55.8874 80.8977 55.9262 80.732 55.9467C77.6471 56.4397 73.6396 57.4093 73.6396 60.2426C73.6396 62.006 75.7549 62.9818 78.5841 62.9859M80.8998 60.5311C80.8998 61.601 79.5067 61.8833 78.4797 61.8833C76.6632 61.8833 75.759 61.1059 75.759 60.081C75.759 58.2153 78.1688 57.5423 80.6829 57.0125C80.8159 56.9859 80.8875 56.9695 80.8875 57.1618L80.8998 60.5311ZM43.3205 49.2798C43.208 48.752 42.6188 48.4308 41.9438 48.574C41.2687 48.7172 40.8616 49.245 40.9741 49.7728C41.0866 50.3006 41.6758 50.6218 42.3529 50.4786C43.03 50.3354 43.433 49.8076 43.3205 49.2798ZM97.9056 62.319C97.9056 62.7629 98.1224 62.7588 98.9284 62.7629C99.7344 62.767 99.939 62.7629 99.939 62.319V55.4578C99.939 52.7309 97.3778 52.1662 95.8619 52.1662C94.0924 52.1662 93.0819 52.6736 92.3843 53.4346C91.6499 52.6347 90.6659 52.1662 88.9434 52.1662C87.7762 52.1756 86.6238 52.4286 85.5599 52.9088C84.8111 53.2402 84.8111 53.6801 84.8111 54.1097V62.319C84.8111 62.7629 85.03 62.7629 85.8217 62.7629C86.6134 62.7629 86.8323 62.7629 86.8323 62.319V54.6743C86.8323 53.5328 87.7467 53.2198 88.9455 53.2198C90.4409 53.2198 91.3553 53.9214 91.3553 55.6848V62.319C91.3553 62.7629 91.5721 62.7629 92.3659 62.7629C93.1596 62.7629 93.3744 62.7629 93.3744 62.319V55.5539C93.3744 54.2119 94.0781 53.2136 95.686 53.2136C97.2489 53.2136 97.9158 54.2365 97.9158 55.5846L97.9056 62.319ZM47.0355 55.8362C47.2135 54.574 48.177 53.1768 50.0815 53.1605C51.6751 53.1482 53.0743 54.1178 53.15 55.5416C53.1725 55.9508 53.0641 56.0019 52.5772 56.0019H47.195C47.0457 56.0019 47.0273 55.9364 47.0416 55.8362M55.165 59.6391C55.1646 59.5888 55.1539 59.5391 55.1335 59.4931C55.1131 59.4471 55.0835 59.4057 55.0465 59.3716C55.0095 59.3375 54.9659 59.3113 54.9184 59.2947C54.8708 59.2781 54.8204 59.2714 54.7702 59.275C54.6648 59.2703 54.5605 59.2991 54.4724 59.3571C54.3842 59.4151 54.3166 59.4995 54.2793 59.5982C53.8905 60.2034 53.3573 60.7023 52.7277 61.0501C52.0981 61.398 51.3919 61.5837 50.6727 61.5907C48.3099 61.6112 46.9475 59.9133 47.0089 57.2948C47.0089 57.2048 47.0437 57.127 47.1807 57.125C47.3178 57.1229 50.8773 57.125 54.4675 57.125C55.1569 57.125 55.1671 56.6688 55.1671 56.2924C55.1671 54.1199 53.1439 52.1131 50.2411 52.1131C47.2278 52.1131 44.9223 53.7496 44.9223 57.5362C44.9223 61.56 47.9294 62.9859 50.4927 62.9859C53.5899 62.9859 55.165 60.5904 55.165 59.6412M150.537 55.8383C150.717 54.5761 151.681 53.1789 153.583 53.1625C155.179 53.1502 156.576 54.1199 156.652 55.5437C156.674 55.9528 156.566 56.004 156.077 56.004H150.686C150.537 56.004 150.517 55.9385 150.531 55.8383M158.656 59.6412C158.656 59.5908 158.645 59.541 158.624 59.495C158.603 59.449 158.574 59.4076 158.536 59.3735C158.499 59.3394 158.456 59.3133 158.408 59.2967C158.36 59.2801 158.31 59.2734 158.259 59.2771C158.026 59.2771 157.912 59.3589 157.771 59.6003C157.383 60.2045 156.851 60.7029 156.223 61.0507C155.595 61.3985 154.89 61.5848 154.172 61.5928C151.809 61.6132 150.447 59.9153 150.506 57.2968C150.503 57.2736 150.506 57.25 150.513 57.2279C150.521 57.2057 150.533 57.1856 150.55 57.1692C150.567 57.1527 150.587 57.1403 150.609 57.133C150.631 57.1257 150.655 57.1237 150.678 57.127C150.815 57.127 154.377 57.127 157.967 57.127C158.656 57.127 158.667 56.6708 158.667 56.2944C158.667 54.1219 156.641 52.1151 153.741 52.1151C150.727 52.1151 148.422 53.7517 148.422 57.5382C148.422 61.5621 151.427 62.9879 153.99 62.9879C157.089 62.9879 158.665 60.5924 158.665 59.6432M32.4068 62.051C32.685 62.7118 32.7484 62.7629 33.8019 62.7629C34.8248 62.7629 34.8391 62.722 35.1337 62.0449C35.4283 61.3677 39.2823 51.6855 40.3031 49.157C40.5302 48.5924 40.432 48.5433 39.5237 48.5433C38.73 48.5433 38.6563 48.5904 38.5009 48.932C38.5009 48.932 34.1845 59.9685 34.0924 60.2222C34.0699 60.2958 33.9779 60.2999 33.9369 60.2222C33.7999 59.9092 29.418 48.9095 29.418 48.9095C29.3137 48.6272 29.2871 48.527 28.1026 48.527C26.8139 48.527 26.8977 48.6497 27.1555 49.2839C27.2169 49.4373 32.1265 61.4005 32.4027 62.0612M57.1146 52.2951C56.64 52.2951 55.9956 52.2951 55.9956 52.2951C55.6765 52.2951 55.6744 52.4711 55.6744 52.8311C55.6744 53.1911 55.6744 53.3548 55.9935 53.3548H57.1146C57.3437 53.3548 57.3519 53.3793 57.3498 53.6187C57.3498 54.124 57.3498 60.2242 57.3498 60.2242C57.3498 62.6279 58.6366 62.9143 59.909 62.9347C61.1814 62.9552 61.9915 62.5808 61.9772 62.1369C61.967 61.8792 61.7972 61.7626 61.5046 61.7953C61.2987 61.8416 61.0894 61.8711 60.8786 61.8833C60.2138 61.8833 59.3751 61.7032 59.3751 60.2467V53.635C59.3751 53.3814 59.3751 53.3487 59.6287 53.3507H61.4514C61.7706 53.3507 61.7808 53.1707 61.7808 52.827C61.7808 52.4833 61.7706 52.289 61.4514 52.289H59.6103C59.3669 52.289 59.3689 52.2644 59.3689 52.0517V49.8403C59.3733 49.7761 59.3634 49.7116 59.3401 49.6516C59.3167 49.5916 59.2803 49.5375 59.2336 49.4932C59.187 49.4488 59.131 49.4153 59.0699 49.3951C59.0088 49.3748 58.9439 49.3683 58.88 49.3759C58.7204 49.3903 58.5302 49.4925 58.0822 49.7851C57.4951 50.1676 57.3437 50.4131 57.3437 51.1127V52.0415C57.3437 52.2972 57.3335 52.2931 57.1084 52.2951M123.54 54.3592C123.54 53.5839 124.373 53.1707 125.287 53.1707C126.846 53.1707 126.67 54.4124 127.785 54.4124C128.29 54.4124 128.603 54.124 128.603 53.6269C128.603 52.7697 127.464 52.1949 125.692 52.1417C123.994 52.0885 123.113 52.3872 122.505 52.6245C121.822 52.8904 121.521 53.2791 121.521 53.8867V62.3088C121.521 62.7527 121.726 62.7527 122.534 62.7527C123.342 62.7527 123.544 62.7527 123.544 62.3088L123.54 54.3592Z" fill="white"/>
</g>
<defs>
<clipPath id="clip0_641_6655">
<rect width="195" height="72" rx="12" fill="white"/>
</clipPath>
</defs>
</svg>
