<svg width="195" height="72" viewBox="0 0 195 72" fill="none" xmlns="http://www.w3.org/2000/svg">
<g clip-path="url(#clip0_641_6719)">
<path d="M42.0896 24.4919C40.7416 23.4892 38.9543 23 36.6703 23C36.1795 23 35.7342 23.0242 35.3223 23.053C34.8815 23.1091 34.4938 23.1378 34.1106 23.1878C33.3579 23.3291 32.6197 23.539 31.9053 23.8149C30.48 24.4131 29.3622 25.178 28.5367 26.102C27.7353 27.0193 27.1963 28.136 26.9766 29.3342C26.9766 29.3342 26.8994 29.6553 26.8509 30.0294C26.8221 30.3061 26.8119 30.5844 26.8206 30.8624C26.8206 32.4619 27.3927 33.6574 28.5367 34.4491C29.6757 35.2367 31.2827 35.891 33.3305 36.4075C34.2887 36.6787 35.2308 37.0039 36.1523 37.3814C36.5945 37.6843 36.8278 38.01 36.8278 38.4174V38.7688C36.5945 39.72 35.657 40.2122 34.0515 40.2122C33.3892 40.219 32.7399 40.0293 32.1855 39.667C31.616 39.2883 31.3282 38.7173 31.3282 37.9842H25.0788C25.0116 38.24 24.985 38.5048 25.0001 38.7688C24.9812 39.5792 25.1438 40.3835 25.4762 41.1228C25.8085 41.8622 26.302 42.5178 26.9206 43.0416C28.3474 44.3411 30.2907 44.9985 32.758 44.9985C35.3223 44.9985 37.6048 44.429 39.5511 43.2885C41.5201 42.1722 42.7318 40.3501 43.2029 37.8449L43.2816 36.6211C43.2986 35.9989 43.1722 35.3812 42.9122 34.8157C42.6522 34.2502 42.2655 33.7521 41.7822 33.3601C40.7704 32.5437 39.3421 31.8909 37.5245 31.4289L35.4253 30.8685C34.6195 30.6186 34.0515 30.3747 33.7152 30.1112C33.5724 30.0021 33.4561 29.8623 33.3748 29.7021C33.2935 29.5419 33.2494 29.3654 33.2457 29.1857L33.2715 28.9389C33.4229 28.2043 34.156 27.8241 35.4253 27.8241C37.0323 27.8241 37.8638 28.3678 37.8638 29.5084V29.622H44.0602V29.266C44.0602 27.1077 43.4104 25.5007 42.0896 24.4919Z" fill="white"/>
<path d="M85.882 34.4325C84.7355 33.6964 83.4117 33.3526 81.8531 33.3526C81.5061 33.3445 81.1589 33.3607 80.8141 33.4011C79.4172 33.5331 78.0765 34.0166 76.9169 34.8067C75.4871 35.7897 74.5799 37.2664 74.1906 39.2536L74.1376 39.8216L74.0588 40.4835C74.0588 41.9572 74.6056 43.0841 75.6962 43.849C76.7867 44.6139 78.168 45.0001 79.8265 45.0001C80.1931 45.0001 80.5308 44.9759 80.8156 44.9517C80.9996 44.9379 81.1817 44.9059 81.3594 44.8562C81.717 44.7941 82.071 44.7121 82.4196 44.6109C82.6816 44.5382 82.9376 44.4397 83.1996 44.3382C83.7239 44.1155 84.2303 43.8527 84.7143 43.5521C85.1835 43.2221 85.6108 42.836 85.9865 42.4025C86.7956 41.4224 87.3195 40.2388 87.5012 38.981L87.5996 37.8526C87.5936 36.2774 87.0226 35.1459 85.882 34.4325ZM82.2696 40.844C82.1327 41.1336 81.9296 41.387 81.6768 41.5838C81.4239 41.7805 81.1285 41.9152 80.8141 41.9769C80.6441 42.018 80.4692 42.0343 80.2946 42.0254C79.2586 42.0254 78.7345 41.4195 78.7345 40.1821C78.8589 39.22 79.1137 38.2794 79.4918 37.3861C79.6237 37.1246 79.8103 36.8946 80.039 36.7116C80.2677 36.5287 80.5331 36.3971 80.8171 36.3258C81.0305 36.2756 81.2491 36.2507 81.4684 36.2516C82.4272 36.2516 82.9209 36.915 82.9209 38.2449C82.9258 39.1522 82.7018 40.0461 82.2696 40.844Z" fill="white"/>
<path d="M56.6012 34.049C55.8727 33.5825 54.5989 33.3599 52.7844 33.3599H52.4542C51.7787 33.3599 51.1804 33.3856 50.6109 33.4356C47.571 33.7506 45.8549 34.9593 45.4611 37.045H49.9247C50.0398 36.6985 50.2824 36.4088 50.6033 36.2346C50.9542 36.0461 51.3488 35.9541 51.7468 35.9681C52.6556 35.9681 53.0934 36.2346 53.0934 36.7511C53.0934 37.0949 52.8631 37.3661 52.3678 37.5614C52.1346 37.6614 51.5348 37.7795 50.6033 37.9053C50.4518 37.9295 50.2883 37.9552 50.1095 37.9795L48.395 38.2264L47.2227 38.4414C46.4915 38.6247 45.8031 38.9488 45.1961 39.3957C44.5463 39.9121 44.104 40.6513 43.8996 41.6055C43.8996 41.654 43.8344 41.8781 43.8269 42.0387C43.8193 42.1992 43.8269 42.2462 43.8269 42.3977C43.8269 43.1792 44.1116 43.7714 44.6841 44.1622C45.4602 44.7062 46.3854 44.9972 47.3332 44.9952H47.571C48.6179 45.0011 49.6541 44.7842 50.6109 44.3591C51.1403 44.1053 51.644 43.8009 52.1149 43.4503V44.9377H56.8678L56.9208 44.456C56.6692 44.2395 56.4957 43.9463 56.4271 43.6215L56.5558 42.8839L57.56 37.5327C57.6361 37.085 57.6806 36.6325 57.6933 36.1786C57.6933 35.2213 57.3293 34.5115 56.6012 34.049ZM51.7468 41.6828C51.5254 41.9307 51.2606 42.136 50.9653 42.2886C50.8498 42.3441 50.7284 42.3863 50.6033 42.4143C50.3842 42.485 50.155 42.5193 49.9247 42.5158C49.0932 42.5158 48.6615 42.1886 48.6812 41.6782C48.6887 41.4595 48.7578 41.2474 48.8805 41.0663C49.0032 40.8851 49.1746 40.7423 49.3749 40.6543C49.8713 40.4508 50.3855 40.2936 50.9108 40.1848C51.4394 40.0651 52.1603 39.9288 52.5193 39.7804C52.3936 40.5786 52.1346 41.2117 51.7468 41.6828Z" fill="white"/>
<path d="M138.094 34.049C137.366 33.5825 136.094 33.3599 134.278 33.3599H133.941C133.266 33.3599 132.667 33.3856 132.098 33.4356C129.058 33.7506 127.342 34.9593 126.948 37.045H131.415C131.53 36.6985 131.773 36.4088 132.093 36.2346C132.444 36.0461 132.839 35.9541 133.237 35.9681C134.146 35.9681 134.585 36.2346 134.585 36.7511C134.585 37.0949 134.353 37.3661 133.858 37.5614C133.625 37.6614 133.026 37.7795 132.093 37.9053C131.934 37.9295 131.778 37.9552 131.6 37.9795L129.885 38.2264L128.716 38.4414C127.985 38.6247 127.296 38.9488 126.689 39.3957C126.039 39.9121 125.599 40.6513 125.393 41.6055C125.393 41.654 125.328 41.8781 125.322 42.0387C125.315 42.1992 125.314 42.2462 125.314 42.3977C125.314 43.1792 125.599 43.7714 126.171 44.1622C126.947 44.7062 127.872 44.9972 128.819 44.9952H129.057C130.104 45.0011 131.14 44.7842 132.096 44.3591C132.626 44.1053 133.13 43.8009 133.601 43.4503V44.9377H138.353L138.406 44.456C138.155 44.2395 137.981 43.9463 137.913 43.6215L138.043 42.8839L139.053 37.5327C139.129 37.085 139.174 36.6325 139.186 36.1786C139.186 35.2213 138.822 34.5115 138.094 34.049ZM133.248 41.6903C133.027 41.9387 132.762 42.1441 132.466 42.2962C132.351 42.3519 132.229 42.394 132.104 42.4219C131.885 42.4926 131.656 42.5269 131.426 42.5234C130.595 42.5234 130.164 42.1962 130.182 41.6858C130.189 41.4671 130.259 41.255 130.381 41.0739C130.504 40.8927 130.675 40.7499 130.876 40.6619C131.372 40.4586 131.886 40.3014 132.412 40.1924C132.942 40.0727 133.661 39.9364 134.02 39.788C133.887 40.5786 133.628 41.2117 133.24 41.6828L133.248 41.6903Z" fill="white"/>
<path d="M71.3279 34.5038C70.2904 33.7177 68.8879 33.3481 67.0976 33.3481C64.8332 33.3481 63.0444 33.9146 61.7191 35.0688C60.4226 36.2229 59.5865 37.6133 59.2745 39.281C59.2745 39.281 59.2215 39.5839 59.1882 39.8701C59.1549 40.1564 59.1488 40.4215 59.1488 40.4215C59.1488 41.7256 59.6411 42.7828 60.5998 43.6673C61.5889 44.5291 63.0232 44.9426 64.8892 44.9426C66.6856 44.9426 68.2411 44.5488 69.5392 43.787C70.1754 43.426 70.7328 42.9414 71.1787 42.3615C71.6246 41.7817 71.9498 41.1184 72.1352 40.4109H67.5383C67.0976 41.4923 66.4221 42.033 65.4845 42.033C64.3712 42.033 63.7957 41.4423 63.7957 40.2382C63.9547 39.0265 64.2122 38.1041 64.553 37.3937C64.9423 36.6364 65.6132 36.2593 66.522 36.2593C66.9916 36.2593 67.3278 36.4107 67.5595 36.6788C67.6731 36.8005 67.7613 36.9434 67.8193 37.0994C67.8773 37.2554 67.9038 37.4213 67.8973 37.5876L67.8761 37.8572H72.5472L72.576 37.2438C72.579 36.1078 72.1625 35.196 71.3279 34.5038Z" fill="white"/>
<path d="M153.163 34.1386C152.488 33.607 151.575 33.3525 150.411 33.3525C148.827 33.3525 147.37 34.0372 146.072 35.4533L146.446 33.3525H142.213L140.125 44.9985H144.774L145.811 39.1975C146.022 38.2645 146.281 37.6586 146.62 37.3527C146.923 37.0498 147.4 36.8983 148.02 36.8983C148.877 36.8983 149.321 37.3315 149.321 38.2418V38.6204L149.292 38.9748L148.205 45H152.804L154.049 38.1645C154.141 37.716 154.184 37.259 154.178 36.8014C154.178 35.5533 153.84 34.6703 153.163 34.1386Z" fill="white"/>
<path d="M170.353 33.3144H164.956L161.365 36.7148L163.202 26.6152H158.577L155.26 44.9559H159.878L160.552 41.3965L161.55 40.5347L163.278 44.9529H168.81L165.274 37.6326L170.353 33.3144Z" fill="white"/>
<path d="M108.844 34.0843C108.247 33.5799 107.313 33.3527 106.118 33.3527C104.426 33.3527 102.946 34.0358 101.672 35.4202C101.257 34.0358 100.141 33.3527 98.293 33.3527H98.196C97.4413 33.3705 96.702 33.57 96.0407 33.9343C95.3514 34.2759 94.7344 34.7469 94.2232 35.3217L94.5609 33.3179H90.32L88.2434 44.9548H92.8433L93.8809 39.1749C94.0869 38.3207 94.3474 37.7406 94.6579 37.4165C94.8275 37.2443 95.0302 37.1081 95.2538 37.0162C95.4774 36.9244 95.7172 36.8786 95.9589 36.8818C96.7647 36.8818 97.1555 37.2862 97.1555 38.0935L97.0767 39.078L96.0165 44.9563H100.635L101.68 39.1765C101.86 38.1753 102.146 37.5407 102.508 37.2635C102.858 37.0141 103.277 36.8811 103.706 36.8833C104.173 36.8833 104.483 36.9606 104.695 37.1635C104.876 37.3377 104.976 37.6437 104.976 38.0723C104.962 38.4437 104.919 38.8134 104.847 39.178L103.8 44.9548H108.427L109.639 38.1935C109.73 37.6611 109.774 37.1219 109.771 36.5819C109.78 35.4202 109.469 34.5917 108.844 34.0843Z" fill="white"/>
<path d="M120.613 33.3525C119.95 33.3399 119.291 33.4424 118.663 33.6554C118.435 33.7811 118.195 33.9023 117.965 34.0492C117.606 34.2666 117.266 34.5138 116.949 34.7884L118.427 26.6094H113.779L110.48 44.9727H114.637L114.98 43.1052C115.443 44.3063 116.431 44.9228 117.965 44.9955H118.189C120.115 44.9955 121.674 44.2594 122.868 42.7871C124.051 41.3675 124.688 39.5716 124.663 37.7237C124.663 36.3484 124.269 35.2715 123.463 34.5082C123.093 34.1305 122.648 33.833 122.158 33.6342C121.668 33.4354 121.142 33.3395 120.613 33.3525ZM119.31 40.7742C118.95 41.3149 118.507 41.6587 117.965 41.7844C117.81 41.8123 117.653 41.829 117.496 41.8344C116.458 41.8344 115.935 41.1953 115.935 39.9381C116.147 38.9339 116.406 38.1524 116.743 37.5586C116.873 37.3405 117.05 37.1544 117.262 37.0141C117.473 36.8739 117.714 36.783 117.965 36.7483C118.136 36.7201 118.309 36.7044 118.483 36.7014C119.498 36.7014 119.989 37.3163 119.989 38.5416C119.985 39.3347 119.749 40.1093 119.31 40.7696V40.7742Z" fill="white"/>
</g>
<defs>
<clipPath id="clip0_641_6719">
<rect width="145.353" height="22" fill="white" transform="translate(25 23)"/>
</clipPath>
</defs>
</svg>
