<svg width="195" height="72" viewBox="0 0 195 72" fill="none" xmlns="http://www.w3.org/2000/svg">
<g clip-path="url(#clip0_641_6660)">
<path d="M96.8199 51.8C96.7332 52.2526 96.5478 52.6806 96.277 53.0535C96.1428 53.171 95.9861 53.2601 95.8164 53.3152C95.6467 53.3703 95.4676 53.3904 95.29 53.3743C94.9315 53.4018 94.5767 53.2865 94.3029 53.0535C94.0362 52.6789 93.8528 52.2514 93.765 51.8L92.4473 46.6772C92.3683 46.386 92.4473 46.312 92.7286 46.312H92.847C93.1481 46.312 93.2468 46.386 93.3406 46.6772L94.6583 51.8937C94.8014 52.486 94.9494 52.6242 95.3295 52.6242C95.7095 52.6242 95.8477 52.486 95.9858 51.8937L97.3035 46.6772C97.3825 46.386 97.4763 46.312 97.7971 46.312H97.876C98.1771 46.312 98.2314 46.386 98.1573 46.6772L96.8199 51.8Z" fill="white"/>
<path d="M99.0555 48.3357C99.0555 48.0692 99.1296 47.9952 99.401 47.9952H99.5195C99.8106 47.9952 99.8649 48.0692 99.8649 48.3357V52.9353C99.8649 53.2265 99.8106 53.2808 99.5195 53.2808H99.401C99.1296 53.2808 99.0555 53.2265 99.0555 52.9353V48.3357ZM99.9093 47.1364C99.8624 47.2239 99.7902 47.2951 99.7022 47.3409C99.6141 47.3867 99.5143 47.4049 99.4158 47.3931H99.3566C99.1345 47.3931 99.0802 47.3388 99.1987 47.1266L99.6527 46.258C99.6914 46.1505 99.7662 46.0598 99.8643 46.0013C99.9624 45.9428 100.078 45.9201 100.191 45.9372H100.299C100.59 45.9372 100.635 46.0013 100.472 46.2481L99.9093 47.1364Z" fill="white"/>
<path d="M103.764 50.1075C103.764 48.701 104.529 47.8867 106.172 47.8867C106.495 47.8812 106.817 47.9278 107.125 48.0248C107.381 48.1137 107.445 48.1877 107.445 48.4345V48.543C107.445 48.8096 107.381 48.8836 107.125 48.7997C106.825 48.6946 106.509 48.6428 106.192 48.6467C104.983 48.6467 104.573 49.1402 104.573 50.1273V51.1637C104.573 52.2494 105.067 52.6442 106.261 52.6442C106.595 52.652 106.929 52.6053 107.248 52.506C107.495 52.4172 107.569 52.506 107.569 52.7725V52.8811C107.569 53.1032 107.495 53.192 107.223 53.2661C106.903 53.3631 106.57 53.4097 106.236 53.4042C104.583 53.4042 103.793 52.6985 103.793 51.1883L103.764 50.1075Z" fill="white"/>
<path d="M109.133 51.3806C109.133 52.2295 109.489 52.6243 110.579 52.6243C111.67 52.6243 112.015 52.2393 112.015 51.3806V48.3356C112.015 48.0691 112.094 47.995 112.361 47.995H112.479C112.77 47.995 112.825 48.0691 112.825 48.3356V51.3806C112.825 52.6786 112.168 53.3843 110.579 53.3843C109.099 53.3843 108.324 52.723 108.324 51.3806V48.3356C108.324 48.0691 108.398 47.995 108.669 47.995H108.788C109.079 47.995 109.133 48.0691 109.133 48.3356V51.3806ZM110.614 47.3929C110.411 47.3929 110.387 47.3189 110.357 47.1906C110.323 46.8896 110.52 46.7612 110.851 46.4158C110.89 46.3868 110.923 46.3499 110.948 46.3074C110.973 46.2649 110.988 46.2178 110.994 46.169C110.994 45.9913 110.905 45.9025 110.796 45.8926C110.626 45.8839 110.457 45.9178 110.303 45.9913C110.276 46.0059 110.247 46.0143 110.217 46.0161C110.187 46.0178 110.157 46.0129 110.129 46.0015C110.101 45.9902 110.076 45.9727 110.056 45.9505C110.036 45.9282 110.02 45.9017 110.012 45.8729L109.967 45.7841C109.903 45.6261 110.012 45.5718 110.12 45.5176C110.32 45.4282 110.538 45.3844 110.757 45.3892C110.861 45.3796 110.965 45.3933 111.063 45.4294C111.161 45.4656 111.249 45.5232 111.321 45.598C111.394 45.6729 111.449 45.763 111.482 45.8618C111.515 45.9607 111.525 46.0656 111.512 46.169C111.512 46.6625 110.885 46.8353 110.856 47.1906C110.849 47.2411 110.826 47.288 110.79 47.3244C110.755 47.3609 110.708 47.3849 110.658 47.3929H110.614Z" fill="white"/>
<path d="M118.11 51.6916C118.11 52.881 117.41 53.3844 115.855 53.3844C114.611 53.3844 113.822 52.8909 113.822 51.7755C113.822 50.6602 114.557 50.211 116.028 50.211H117.301V49.5744C117.301 48.844 116.807 48.5874 115.885 48.5874C115.485 48.5819 115.086 48.6216 114.695 48.7058C114.439 48.7601 114.35 48.7058 114.35 48.4393V48.3554C114.35 48.1086 114.419 48.0445 114.675 47.9902C115.061 47.9142 115.453 47.8778 115.845 47.8816C117.355 47.8816 118.11 48.4393 118.11 49.5645V51.6916ZM117.301 50.8477H116.038C115.075 50.8477 114.631 51.1043 114.631 51.7755C114.631 52.4467 115.031 52.6885 115.845 52.6885C116.832 52.6885 117.301 52.4615 117.301 51.662V50.8477Z" fill="white"/>
<path d="M126.678 49.8704C126.678 51.114 125.928 51.7359 124.437 51.7359C124.054 51.7195 123.67 51.7477 123.292 51.8198C123.219 51.8348 123.153 51.8751 123.106 51.9337C123.059 51.9923 123.034 52.0655 123.036 52.1406C123.036 52.2936 123.12 52.3873 123.307 52.4416C123.681 52.4984 124.059 52.5199 124.437 52.5058C125.073 52.4494 125.712 52.5653 126.288 52.8414C126.469 52.9663 126.612 53.1378 126.703 53.3376C126.795 53.5374 126.83 53.7581 126.806 53.9765C126.833 54.2165 126.799 54.4596 126.705 54.6824C126.612 54.9053 126.463 55.1006 126.273 55.2498C125.709 55.545 125.072 55.6718 124.437 55.615C123.787 55.6766 123.132 55.5498 122.552 55.2498C122.382 55.1184 122.248 54.9466 122.162 54.75C122.076 54.5535 122.04 54.3384 122.059 54.1245C122.046 53.897 122.095 53.6704 122.201 53.4688C122.307 53.2671 122.466 53.098 122.661 52.9796C122.523 52.9208 122.407 52.821 122.328 52.6938C122.25 52.5666 122.212 52.4182 122.221 52.2689C122.221 51.8 122.513 51.5187 123.095 51.4348C122.795 51.307 122.544 51.0856 122.381 50.8036C122.217 50.5216 122.149 50.1942 122.187 49.8704V49.742C122.187 48.5724 123.021 47.8864 124.432 47.8864C124.815 47.8796 125.195 47.9536 125.548 48.1035L126.165 47.5557C126.347 47.3929 126.431 47.3929 126.604 47.5557L126.683 47.6298C126.856 47.7877 126.856 47.8765 126.683 48.0493L126.189 48.5428C126.354 48.6948 126.483 48.8808 126.569 49.0879C126.654 49.2951 126.693 49.5183 126.683 49.742L126.678 49.8704ZM123.381 53.1622C123.22 53.2419 123.087 53.3684 122.999 53.5252C122.911 53.6819 122.872 53.8615 122.888 54.0406C122.888 54.7365 123.287 54.9191 124.452 54.9191C125.617 54.9191 126.007 54.7365 126.007 54.0159C126.007 53.2954 125.607 53.2263 124.447 53.2263C124.091 53.2265 123.735 53.2051 123.381 53.1622ZM125.849 49.742C125.849 48.982 125.355 48.6069 124.432 48.6069C123.51 48.6069 122.996 48.982 122.996 49.742V49.8704C122.996 50.6403 123.342 51.0252 124.432 51.0252C125.523 51.0252 125.849 50.6403 125.849 49.8704V49.742Z" fill="white"/>
<path d="M128.844 46.3416C128.845 46.4085 128.831 46.4748 128.805 46.5363C128.778 46.5979 128.74 46.6534 128.691 46.6996C128.643 46.7457 128.585 46.7816 128.523 46.8049C128.46 46.8282 128.393 46.8385 128.326 46.8351C128.19 46.8405 128.056 46.7916 127.956 46.6992C127.855 46.6067 127.795 46.4782 127.788 46.3416C127.789 46.2718 127.803 46.2029 127.831 46.1387C127.858 46.0746 127.898 46.0165 127.948 45.9679C127.998 45.9192 128.057 45.881 128.122 45.8553C128.187 45.8297 128.257 45.8171 128.326 45.8185C128.395 45.8184 128.463 45.832 128.526 45.8584C128.589 45.8847 128.646 45.9233 128.694 45.972C128.743 46.0206 128.781 46.0783 128.806 46.1418C128.832 46.2052 128.845 46.2731 128.844 46.3416ZM127.917 48.3157C127.917 48.0492 127.971 47.9751 128.262 47.9751H128.381C128.652 47.9751 128.726 48.0492 128.726 48.3157V52.9153C128.726 53.2065 128.652 53.2608 128.381 53.2608H128.262C127.971 53.2608 127.917 53.2065 127.917 52.9153V48.3157Z" fill="white"/>
<path d="M134.185 51.6916C134.185 52.881 133.479 53.3844 131.924 53.3844C130.681 53.3844 129.891 52.8908 129.891 51.7755C129.891 50.6601 130.626 50.211 132.097 50.211H133.37V49.5744C133.37 48.844 132.877 48.5873 131.959 48.5873C131.559 48.5813 131.16 48.621 130.769 48.7058C130.508 48.7601 130.424 48.7058 130.424 48.4393V48.3554C130.424 48.1086 130.488 48.0445 130.745 47.9902C131.13 47.9144 131.522 47.878 131.914 47.8816C133.424 47.8816 134.185 48.4393 134.185 49.5645V51.6916ZM133.37 50.8477H132.107C131.144 50.8477 130.705 51.1043 130.705 51.7755C130.705 52.4467 131.105 52.6885 131.914 52.6885C132.901 52.6885 133.37 52.4615 133.37 51.662V50.8477Z" fill="white"/>
<path d="M143.981 47.1069C143.981 47.3339 143.907 47.408 143.68 47.408H143.033V51.1587C143.033 52.6393 142.244 53.3993 140.664 53.3993C139.085 53.3993 138.3 52.6492 138.3 51.1587V50.1717C138.3 48.6615 139.046 47.9114 140.536 47.9114C141.37 47.9114 141.928 48.168 142.219 48.6961V47.3932H140.738C140.487 47.3932 140.432 47.3191 140.432 47.0921V47.0082C140.432 46.7812 140.487 46.7072 140.738 46.7072H142.219V46.1199C142.219 45.8287 142.273 45.7744 142.569 45.7744H142.688C142.954 45.7744 143.033 45.8287 143.033 46.1199V46.7072H143.68C143.907 46.7072 143.981 46.7812 143.981 47.0082V47.1069ZM139.11 51.1489C139.11 52.1803 139.465 52.6294 140.664 52.6294C141.864 52.6294 142.219 52.1705 142.219 51.1489V50.1618C142.219 49.1353 141.844 48.6813 140.664 48.6813C139.485 48.6813 139.11 49.1452 139.11 50.1618V51.1489Z" fill="white"/>
<path d="M143.774 46.2478C143.616 46.0011 143.655 45.9369 143.946 45.9369H144.055C144.169 45.9186 144.285 45.9407 144.384 45.9993C144.483 46.0579 144.559 46.1493 144.598 46.2577L145.052 47.1263C145.16 47.3385 145.126 47.3928 144.889 47.3928H144.761C144.667 47.3986 144.573 47.3775 144.491 47.3321C144.409 47.2866 144.342 47.2187 144.297 47.1362L143.774 46.2478ZM144.4 48.3354C144.4 48.0689 144.479 47.9949 144.746 47.9949H144.869C145.16 47.9949 145.215 48.0689 145.215 48.3354V52.9351C145.215 53.2262 145.16 53.2805 144.869 53.2805H144.761C144.494 53.2805 144.415 53.2262 144.415 52.9351L144.4 48.3354Z" fill="white"/>
<path d="M147.396 52.9355C147.396 53.2266 147.342 53.2809 147.051 53.2809H146.927C146.661 53.2809 146.582 53.2266 146.582 52.9355V49.8904C146.582 48.553 147.342 47.8867 148.842 47.8867C150.431 47.8867 151.088 48.5925 151.088 49.8904V52.9355C151.088 53.2266 151.033 53.2809 150.742 53.2809H150.614C150.323 53.2809 150.268 53.2266 150.268 52.9355V49.8904C150.268 49.0317 149.933 48.6467 148.842 48.6467C147.751 48.6467 147.396 49.0465 147.396 49.8904V52.9355Z" fill="white"/>
<path d="M152.469 46.1199C152.469 45.8287 152.548 45.7744 152.815 45.7744H152.933C153.23 45.7744 153.279 45.8287 153.279 46.1199V48.6171C153.476 48.3606 153.735 48.1588 154.033 48.0309C154.33 47.9031 154.655 47.8534 154.977 47.8867C156.304 47.8867 156.975 48.5085 156.975 49.7621V52.9354C156.975 53.2266 156.921 53.2809 156.63 53.2809H156.502C156.21 53.2809 156.156 53.2266 156.156 52.9354V49.8608C156.156 49.0119 155.776 48.6467 154.774 48.6467C153.772 48.6467 153.294 49.0563 153.294 50.0434V52.9354C153.294 53.2266 153.244 53.2809 152.948 53.2809H152.83C152.563 53.2809 152.484 53.2266 152.484 52.9354L152.469 46.1199Z" fill="white"/>
<path fill-rule="evenodd" clip-rule="evenodd" d="M163.539 34.1816L158.002 26.2457L157.439 25.7522H162.898L166.594 31.7534L166.89 31.5116L169.126 28.1853C169.405 27.8208 169.529 27.3613 169.471 26.906C169.414 26.4508 169.18 26.0363 168.82 25.7522H173.977L168.015 34.1816V40.3111L169.067 41.5597H162.651L163.554 40.3309C163.554 38.2877 163.48 36.2198 163.554 34.1816H163.539ZM148.506 25.7275C148.861 26.0989 149.08 26.5787 149.128 27.0897C149.168 27.4064 149.131 27.7282 149.02 28.0274L144.899 39.9657C144.635 40.5689 144.234 41.1026 143.729 41.5252H148.215C147.889 41.253 147.668 40.8763 147.589 40.4592C147.512 40.1663 147.512 39.8588 147.589 39.5659L148.526 36.743H153.758L154.572 38.9293C154.655 39.15 154.708 39.3806 154.73 39.6153C154.783 39.9895 154.733 40.3713 154.586 40.7193C154.438 41.0672 154.197 41.3681 153.891 41.5894H160.933C160.238 41.0308 159.665 40.3354 159.25 39.5462L154.108 25.7275H148.506ZM152.993 34.6702H149.252L151.063 29.503L152.993 34.6702ZM134.263 25.7423H137.802H142.101C143.239 25.7462 144.331 26.2004 145.136 27.0057C145.941 27.811 146.395 28.9021 146.399 30.0409V30.569C146.381 31.6979 145.92 32.7747 145.117 33.5675C144.313 34.3603 143.23 34.8059 142.101 34.8084L140.126 34.8676C141.706 34.1421 142.362 32.3111 142.165 30.6628C142.007 29.3401 141.326 28.0668 140.191 28.0422H139.475V39.7929C139.468 39.9816 139.523 40.1673 139.633 40.321C139.846 40.6676 140.085 40.9975 140.349 41.308L140.556 41.5548H134.476L134.742 41.2143C134.931 40.9609 135.088 40.6859 135.211 40.395C135.289 40.2282 135.33 40.0462 135.329 39.862V27.1785C135.305 26.5221 134.648 26.147 134.263 25.7423Z" fill="white"/>
<path fill-rule="evenodd" clip-rule="evenodd" d="M101.212 25.6584H106.147L110.278 37.503L113.782 27.6917C113.845 27.4063 113.796 27.1075 113.644 26.8577C113.452 26.4579 113.244 26.073 113.052 25.6732H116.724C116.506 26.4777 116.186 27.3561 115.909 28.1408L111.162 41.9595C109.73 41.7242 108.394 41.0896 107.307 40.1285C106.463 39.3339 106.167 38.4258 105.753 37.345L101.804 26.8379C101.645 26.4346 101.458 26.0422 101.247 25.6633L101.212 25.6584ZM120.859 31.2056V39.6695C120.859 40.015 120.943 40.0742 121.15 40.3506L122.138 41.614H117.503L118.288 40.4197C118.478 40.1896 118.58 39.8989 118.574 39.6004V27.7559L117.271 25.6387H122.059L129.832 35.6473V27.6917C129.841 27.3898 129.743 27.0943 129.555 26.8577C129.294 26.4579 129.022 26.073 128.761 25.6732H133.41L132.423 26.9366C132.21 27.213 132.131 27.2772 132.131 27.6177V42.0187C130.379 41.7867 128.746 41.3574 127.295 39.5017L120.859 31.2056Z" fill="white"/>
<path d="M80.1438 37.7843L76.6891 28.1852C76.6003 27.9632 76.5164 27.7361 76.4325 27.5091C76.2992 27.1834 76.1857 26.9317 76.0969 26.7442C75.9156 26.4081 75.688 26.0991 75.4208 25.8262V25.7769H80.8248V25.8854L80.7804 26.0384C80.8671 26.5687 80.9875 27.0929 81.1407 27.6078L84.5361 37.4783L87.369 28.8219L87.5121 28.4073L87.6552 27.9138C87.6749 27.8408 87.6897 27.7666 87.6996 27.6917C87.7059 27.6211 87.7059 27.5501 87.6996 27.4795C87.69 27.1354 87.5853 26.8006 87.3971 26.5123C87.209 26.224 86.9447 25.9934 86.6336 25.8459V25.7966H90.8878V25.8558L85.4097 41.9792L83.5639 41.3228C83.2431 41.2044 82.9569 41.0909 82.7002 40.9724C82.4625 40.8647 82.2332 40.7393 82.0142 40.5973C81.6243 40.3355 81.289 40.0003 81.0272 39.6103C80.6572 39.0411 80.3604 38.4276 80.1438 37.7843Z" fill="white"/>
<path d="M90.5521 28.3531L96.3313 25.0366L97.4713 27.1292L91.8994 29.1773L90.5521 28.3531ZM92.0327 39.2353V32.5332C92.052 32.1362 91.9881 31.7394 91.8452 31.3685C91.6965 31.0694 91.4922 30.8014 91.2431 30.5789V30.4851H94.1252C94.506 30.4902 94.8867 30.472 95.2653 30.4308C95.5541 30.3981 95.8322 30.3021 96.0796 30.1495H96.1733V39.3142C96.1562 39.7237 96.2113 40.133 96.3362 40.5234C96.4674 40.8686 96.7017 41.165 97.0074 41.3722V41.466H91.1888V41.3722C91.5025 41.1305 91.7448 40.8081 91.8896 40.4395C91.9954 40.0388 92.0419 39.6248 92.0278 39.2106L92.0327 39.2353Z" fill="white"/>
<path d="M46.6385 28.9158C46.59 28.9619 46.5513 29.0174 46.5249 29.0789C46.4985 29.1405 46.4849 29.2067 46.4849 29.2736C46.4849 29.3406 46.4985 29.4068 46.5249 29.4683C46.5513 29.5298 46.59 29.5853 46.6385 29.6314L47.892 30.8899L46.4904 32.3014L42.5423 28.3532C41.7043 27.4972 40.6446 26.8915 39.4818 26.6038C38.319 26.3162 37.0991 26.358 35.9587 26.7246C35.8317 26.7658 35.7263 26.8558 35.6657 26.9747C35.6051 27.0937 35.5942 27.2318 35.6354 27.3588C35.6766 27.4857 35.7666 27.5911 35.8856 27.6517C36.0045 27.7124 36.1426 27.7233 36.2696 27.682C37.2309 27.3654 38.2615 27.3237 39.2452 27.5618C40.2289 27.7999 41.1264 28.3082 41.8365 29.0293L45.7847 32.9775L44.3831 34.3791L40.4349 30.4309C40.1109 30.1069 39.7262 29.8498 39.3028 29.6745C38.8794 29.4991 38.4256 29.4088 37.9673 29.4088C37.0418 29.4088 36.1542 29.7765 35.4997 30.4309C35.1756 30.755 34.9186 31.1397 34.7432 31.5631C34.5678 31.9865 34.4776 32.4403 34.4776 32.8986C34.4776 33.8241 34.8452 34.7117 35.4997 35.3662L38.0463 37.9276C38.0929 37.9745 38.1484 38.0119 38.2095 38.0374C38.2706 38.063 38.3361 38.0763 38.4023 38.0765C38.4686 38.0767 38.5342 38.0639 38.5954 38.0388C38.6567 38.0136 38.7124 37.9767 38.7594 37.93C38.8064 37.8834 38.8437 37.8279 38.8693 37.7668C38.8948 37.7057 38.9081 37.6402 38.9083 37.574C38.9086 37.5077 38.8958 37.4421 38.8706 37.3809C38.8455 37.3196 38.8085 37.2639 38.7619 37.2169L36.1857 34.6259C35.723 34.1593 35.4646 33.5279 35.4674 32.8708C35.4702 32.2137 35.7339 31.5846 36.2005 31.1219C36.6671 30.6592 37.2984 30.4008 37.9556 30.4036C38.6127 30.4064 39.2418 30.6701 39.7045 31.1367L43.6527 35.1145L42.4436 36.3236L42.261 36.5111L38.3128 32.5334C38.2661 32.4864 38.2107 32.449 38.1496 32.4235C38.0885 32.3979 38.0229 32.3847 37.9567 32.3844C37.8905 32.3842 37.8249 32.397 37.7636 32.4221C37.7023 32.4473 37.6466 32.4842 37.5996 32.5309C37.5526 32.5776 37.5153 32.633 37.4898 32.6941C37.4642 32.7552 37.4509 32.8207 37.4507 32.8869C37.4505 32.9532 37.4633 33.0188 37.4884 33.0801C37.5136 33.1413 37.5505 33.197 37.5972 33.244L41.5453 37.2268L39.7637 39.0034L39.5762 39.191C39.0632 39.7042 38.482 40.1443 37.8489 40.4988L34.0833 36.7431C33.1859 35.8414 32.6316 34.6545 32.5162 33.3875C32.4009 32.1206 32.7317 30.8531 33.4516 29.8042C33.4913 29.7501 33.5196 29.6884 33.5347 29.623C33.5499 29.5576 33.5514 29.4897 33.5394 29.4237C33.5274 29.3576 33.5021 29.2947 33.4649 29.2388C33.4277 29.1828 33.3795 29.1351 33.3233 29.0984C33.2693 29.0595 33.208 29.0318 33.1431 29.0172C33.0782 29.0025 33.011 29.0011 32.9455 29.0131C32.88 29.0251 32.8177 29.0502 32.7621 29.0869C32.7066 29.1236 32.6591 29.1712 32.6225 29.2268C31.7695 30.47 31.3767 31.9718 31.5118 33.4735C31.6469 34.9752 32.3015 36.3828 33.3627 37.4538L36.8668 40.9825C36.141 41.2607 35.3772 41.4271 34.6015 41.476C34.5911 41.4547 34.5759 41.4361 34.5571 41.4217L31.9858 38.8307C30.4611 37.2289 29.6247 35.0933 29.6561 32.8821C29.6875 30.6708 30.5841 28.5598 32.1536 27.0019C33.7232 25.444 35.8407 24.5631 38.0522 24.5481C40.2636 24.5332 42.3929 25.3854 43.9834 26.922C44.0295 26.9705 44.085 27.0092 44.1465 27.0356C44.208 27.062 44.2742 27.0756 44.3412 27.0756C44.4081 27.0756 44.4743 27.062 44.5358 27.0356C44.5974 27.0092 44.6529 26.9705 44.699 26.922C44.7467 26.876 44.7847 26.8208 44.8107 26.7597C44.8366 26.6987 44.85 26.633 44.85 26.5667C44.85 26.5003 44.8366 26.4347 44.8107 26.3736C44.7847 26.3126 44.7467 26.2574 44.699 26.2113C43.8234 25.3283 42.7824 24.6264 41.6356 24.1456C40.4887 23.6649 39.2584 23.4147 38.0148 23.4094C36.7713 23.4042 35.5389 23.6439 34.388 24.1149C33.2371 24.5859 32.1903 25.279 31.3072 26.1546C30.4242 27.0302 29.7223 28.0711 29.2415 29.218C28.7608 30.3648 28.5106 31.5952 28.5053 32.8387C28.4947 35.3501 29.4821 37.7629 31.2505 39.5463L33.1407 41.4513H33.1012C32.0576 41.3258 31.0503 40.99 30.14 40.4643C29.7198 40.2462 29.3299 39.9741 28.9803 39.6549L28.7582 39.4377L21.686 32.3606C21.5635 32.228 21.4559 32.0824 21.3652 31.9263C21.1251 31.5234 20.9989 31.0629 21 30.5938C21 30.5198 21 30.4408 21 30.3668C21.0109 30.2574 21.0274 30.1487 21.0494 30.0411L21.079 29.9177V29.8683C21.185 29.5358 21.3524 29.2262 21.5725 28.9553L21.76 28.748L21.8834 28.6247L29.2764 21.2514L33.7477 16.7801C34.2245 16.303 34.8645 16.0245 35.5386 16.0007C36.2127 15.9769 36.8707 16.2096 37.38 16.6518L49.7526 29.0293L48.6077 30.1743L47.3541 28.9158C47.308 28.8673 47.2525 28.8287 47.191 28.8023C47.1295 28.7758 47.0632 28.7622 46.9963 28.7622C46.9294 28.7622 46.8631 28.7758 46.8016 28.8023C46.7401 28.8287 46.6846 28.8673 46.6385 28.9158Z" fill="#D0D2D3"/>
<path d="M36.2844 45.6264C35.6827 45.6255 35.0883 45.4942 34.5422 45.2414L33.1258 43.8349L32.7754 43.4894L32.731 43.4302L32.0746 42.7689L28.7828 39.4277C28.8569 39.5067 28.926 39.5807 29 39.6498C29.3456 39.966 29.7304 40.2363 30.145 40.4542C31.1556 41.0366 32.2834 41.3862 33.4462 41.4776C34.609 41.5689 35.7776 41.3997 36.8667 40.9823C37.2062 40.8549 37.5361 40.7032 37.8538 40.5283C38.483 40.1706 39.0593 39.7271 39.5663 39.2106L39.7538 39.023L41.5355 37.2365L41.723 37.0489L42.2461 36.5209L42.4337 36.3333L43.6428 35.1242L44.5756 34.2309L45.7798 33.0169L45.9722 32.8293L53.607 25.1698L56.7705 21.7448L56.9383 21.577C57.1675 21.3472 57.4398 21.1649 57.7396 21.0405C58.0394 20.9161 58.3608 20.8521 58.6854 20.8521C59.0099 20.8521 59.3313 20.9161 59.6311 21.0405C59.9309 21.1649 60.2032 21.3472 60.4324 21.577L62.1647 23.3093L62.2239 23.3636C61.8343 23.3457 61.4453 23.4084 61.081 23.5477C60.7167 23.6869 60.3851 23.8998 60.1067 24.1729L54.2683 29.9077L54.2091 29.9817L44.0228 40.0101L40.2671 43.6967V43.7263C40.2671 43.7263 40.1783 43.8299 40.045 43.9632C39.5324 44.4604 38.9445 44.8735 38.3029 45.1871C37.9425 45.3592 37.5632 45.4884 37.1727 45.5721C36.9476 45.613 36.7201 45.6393 36.4917 45.651L36.2844 45.6264Z" fill="white"/>
<path d="M71.5564 36.1605L71.3688 36.348L63.0678 44.7724L54.3522 53.6213C54.0736 53.8949 53.775 54.1473 53.4589 54.3764L53.4244 54.406L53.2961 54.4948C51.7779 55.5791 49.9299 56.1016 48.0688 55.9728C46.2077 55.844 44.4493 55.072 43.0949 53.7891L42.8975 53.6164L41.417 52.1358L37.1727 47.8964L35.7661 46.4948L35.5687 46.2974C35.7973 46.3329 36.0283 46.351 36.2597 46.3517H36.4521C36.7208 46.343 36.9882 46.3116 37.2516 46.2579C37.7002 46.1638 38.136 46.0163 38.5496 45.8187C39.2616 45.4705 39.9145 45.0125 40.4842 44.4615C40.6125 44.3332 40.7063 44.2296 40.7458 44.1802L43.9833 40.997L55.1172 30.0408L55.1764 29.9717L60.6051 24.6466C60.9598 24.295 61.4262 24.0784 61.9236 24.0343C62.4211 23.9901 62.9183 24.1212 63.3294 24.4048L64.6125 25.6879L71.5712 32.6417C71.6325 32.7023 71.6902 32.7666 71.7439 32.8341C72.1339 33.3118 72.331 33.9181 72.2963 34.5337C72.2615 35.1494 71.9976 35.7297 71.5564 36.1605Z" fill="white"/>
</g>
<defs>
<clipPath id="clip0_641_6660">
<rect width="152.972" height="40" fill="white" transform="translate(21 16)"/>
</clipPath>
</defs>
</svg>
