<svg width="160" height="72" viewBox="0 0 160 72" fill="none" xmlns="http://www.w3.org/2000/svg">
<g clip-path="url(#clip0_641_6682)">
<path d="M59.5135 62.4429C59.7041 62.0069 59.8979 61.5724 60.0871 61.1363L63.3363 53.6641C63.8896 52.394 64.4434 51.1239 64.9977 49.8538C65.0367 49.7647 65.0742 49.6835 65.1962 49.6819C65.3181 49.6803 65.3524 49.771 65.3884 49.8569C66.4168 52.22 67.4451 54.5831 68.4735 56.9462C68.9945 58.1497 69.5202 59.3531 70.0505 60.5565C70.0786 60.6206 70.1177 60.6815 70.1568 60.7534C70.2014 60.6641 70.2173 60.563 70.2021 60.4643C70.2021 56.9749 70.2021 53.4844 70.2021 49.9929C70.2021 49.8804 70.1646 49.7475 70.3068 49.6882C70.449 49.6288 70.5162 49.7429 70.5991 49.8241L75.6113 54.8097C75.8066 55.0035 76.0082 55.1942 76.1989 55.3943C76.3364 55.5396 76.4443 55.5506 76.5959 55.3943C77.6993 54.2898 78.8069 53.188 79.9186 52.0888C80.6865 51.3261 81.4554 50.5644 82.2254 49.8038C82.2973 49.7319 82.363 49.6475 82.4849 49.6913C82.6068 49.735 82.6005 49.8601 82.599 49.971C82.599 51.512 82.599 53.0536 82.599 54.5956V63.3478C82.599 63.7979 82.5146 63.8792 82.0629 63.8792C81.4377 63.8792 80.8266 63.8792 80.2077 63.8792C79.7857 63.8792 79.6951 63.7823 79.6951 63.3666C79.6951 62.0788 79.6951 60.7915 79.6951 59.5047C79.6951 58.6461 79.6951 57.7876 79.6951 56.929C79.6951 56.8228 79.717 56.6946 79.5888 56.6461C79.4607 56.5977 79.4091 56.7149 79.3403 56.7837C78.4422 57.6714 77.5446 58.5602 76.6475 59.45C76.4224 59.6735 76.3755 59.6719 76.1536 59.45C75.2627 58.5643 74.3703 57.6787 73.4764 56.7931C73.406 56.7243 73.3513 56.5899 73.2138 56.6368C73.0763 56.6837 73.1044 56.8259 73.1044 56.9384V63.2009C73.1044 63.8261 73.0653 63.8683 72.4386 63.8683L65.8276 63.8605C65.5791 63.8605 65.5759 63.8605 65.6713 63.6276C66.1922 62.295 66.7106 60.9618 67.2263 59.6281C67.3826 59.2437 67.3514 59.1858 66.9669 59.0249C66.4043 58.7904 65.8432 58.556 65.279 58.3247C65.2057 58.3049 65.1421 58.2591 65.1001 58.1958C65.0581 58.1325 65.0406 58.0561 65.0508 57.9809C65.0758 57.015 65.0883 56.0476 65.1039 55.0801C65.1039 55.0004 65.1039 54.9238 65.1039 54.841C65.1086 54.8121 65.1074 54.7826 65.1004 54.7542C65.0934 54.7258 65.0808 54.699 65.0633 54.6756C65.0459 54.6521 65.0238 54.6324 64.9986 54.6176C64.9734 54.6028 64.9454 54.5932 64.9164 54.5894C64.782 54.5675 64.746 54.666 64.707 54.7644C64.5022 55.2911 64.2912 55.8178 64.0818 56.3445C63.7067 57.2947 63.3457 58.2481 62.9675 59.1858C62.9462 59.2194 62.9333 59.2576 62.93 59.2972C62.9266 59.3369 62.9329 59.3767 62.9482 59.4134C62.9636 59.45 62.9876 59.4824 63.0181 59.5079C63.0487 59.5333 63.0849 59.551 63.1238 59.5594C63.702 59.7969 64.2756 60.0423 64.8539 60.2799C65.2024 60.4221 65.2055 60.4174 65.1993 60.7784C65.1821 61.7318 65.1602 62.6836 65.1524 63.6354C65.1524 63.8198 65.0914 63.862 64.9164 63.862C63.3019 63.862 61.6875 63.862 60.0714 63.862C59.1196 63.862 58.1663 63.862 57.2145 63.862C57.1316 63.8682 57.0487 63.8499 56.9762 63.8093C56.9036 63.7687 56.8446 63.7077 56.8065 63.6338C55.9126 62.1189 55.0118 60.605 54.1043 59.0921C53.948 58.8248 53.8652 58.8233 53.698 59.0921C53.4557 59.4797 53.2291 59.8735 52.9837 60.2627C52.9224 60.3705 52.8931 60.4936 52.8993 60.6175C52.8993 61.5552 52.8993 62.4929 52.8993 63.4307C52.8993 63.7432 52.793 63.8589 52.4883 63.8605C51.7891 63.8605 51.091 63.8605 50.394 63.8605C50.3428 63.8677 50.2907 63.8632 50.2415 63.8471C50.1924 63.8311 50.1476 63.804 50.1106 63.7679C50.0736 63.7318 50.0454 63.6877 50.0282 63.639C50.0109 63.5903 50.0051 63.5383 50.0111 63.4869C50.0017 63.1962 50.0033 62.9055 50.0033 62.6148C50.0033 58.3909 50.0033 54.1653 50.0033 49.9382C50.0033 49.5053 50.0924 49.424 50.5331 49.424C51.1739 49.424 51.8131 49.424 52.4539 49.424C52.7852 49.424 52.9009 49.5397 52.9009 49.8694C52.9009 51.2573 52.9009 52.6462 52.9009 54.0361C52.9009 54.0939 52.9009 54.1533 52.9009 54.2112C52.9009 54.3002 52.9134 54.3909 53.0165 54.4221C53.1197 54.4534 53.1728 54.3784 53.2228 54.3034C53.4187 53.9908 53.613 53.6782 53.8058 53.3656C54.5758 52.1153 55.3452 50.865 56.1142 49.6147C56.1587 49.5481 56.2209 49.4951 56.2937 49.4617C56.3666 49.4283 56.4472 49.4158 56.5268 49.4256H58.8836C59.3322 49.4256 59.4791 49.671 59.2447 50.0507C58.6304 51.0635 58.0084 52.07 57.3895 53.0796C56.8362 53.983 56.2845 54.8879 55.7266 55.7881C55.6902 55.8463 55.6735 55.9145 55.6789 55.9829C55.6842 56.0513 55.7113 56.1161 55.7563 56.1679C56.3345 57.1431 56.9113 58.1184 57.4864 59.0936L59.3853 62.3116C59.4134 62.3523 59.4306 62.4132 59.5135 62.4429Z" fill="white"/>
<path d="M82.1021 47.4972C82.3092 47.1368 82.4965 46.7653 82.6632 46.3845C83.2236 45.1638 83.4901 43.8288 83.4415 42.4866C83.3832 41.3868 83.0952 40.3113 82.5959 39.3296C81.8489 37.8292 80.7845 36.5664 79.5889 35.4067C77.8698 33.7422 75.9568 32.3278 74.0219 30.9368C72.5356 29.8678 71.0243 28.8347 69.5661 27.7282C68.358 26.8092 67.1202 25.9293 65.8996 25.026C64.7493 24.1757 63.599 23.3255 62.5237 22.38C61.2953 21.3047 60.1809 20.1372 59.3729 18.7072C58.6957 17.5153 58.2702 16.1972 58.1226 14.8343C57.9038 12.9214 58.1226 11.0349 58.4915 9.15947C58.568 8.775 58.6571 8.39365 58.7446 7.99512C58.8322 8.05607 58.8259 8.15141 58.84 8.2108C59.4073 10.7614 60.6498 12.9557 62.3549 14.9109C63.6537 16.4004 65.1337 17.6929 66.6826 18.915C68.7425 20.5389 70.9024 22.0408 73.0107 23.5865C74.533 24.7056 76.038 25.8496 77.4728 27.0765C78.9638 28.3518 80.4173 29.6678 81.6723 31.1838C83.2555 33.0952 84.5152 35.1863 85.1357 37.6135C85.7217 39.9 85.6436 42.1459 84.6465 44.323C84.1078 45.5031 83.3191 46.5521 82.3349 47.3972C82.3065 47.4307 82.2707 47.4572 82.2303 47.4746C82.1899 47.4919 82.146 47.4997 82.1021 47.4972Z" fill="white"/>
<path d="M96.3086 52.3343H95.0067C94.6066 52.3343 94.2065 52.3437 93.8064 52.3343C93.6376 52.3343 93.6032 52.3843 93.6032 52.5421C93.6032 53.6846 93.6032 54.8255 93.6032 55.968C93.6032 58.5207 93.6032 61.0734 93.6032 63.6262C93.6032 63.8075 93.5751 63.8778 93.3704 63.8747C92.5561 63.8606 91.7418 63.8622 90.9276 63.8747C90.74 63.8747 90.6994 63.8153 90.7009 63.6387C90.7009 59.9596 90.7009 56.2801 90.7009 52.6C90.7009 52.3921 90.6556 52.3327 90.4415 52.3358C89.4303 52.3483 88.4191 52.3437 87.4095 52.3358C86.9406 52.3358 86.8171 52.2139 86.8171 51.7419C86.8171 51.1246 86.8171 50.5057 86.8171 49.8883C86.8171 49.5836 86.9734 49.4367 87.2751 49.4289C87.4704 49.4289 87.6674 49.4289 87.8643 49.4289H100.494C101.119 49.4289 101.733 49.2929 102.362 49.2944C105.344 49.3023 108.187 51.3184 109.174 54.1394C109.845 56.0555 109.782 57.9482 108.913 59.7752C108.496 60.6881 107.89 61.5024 107.136 62.165C106.382 62.8275 105.496 63.3233 104.537 63.6199C102.788 64.2207 100.873 64.1084 99.2062 63.3073C96.9087 62.2133 95.4881 60.3941 95.038 57.881C94.6926 55.9602 95.1036 54.1722 96.1757 52.5406L96.2586 52.4124C96.2769 52.3874 96.2936 52.3613 96.3086 52.3343ZM102.274 52.1905C101.09 52.1988 99.9573 52.6768 99.1254 53.5196C98.2934 54.3625 97.83 55.5011 97.8371 56.6854C97.8371 59.0766 99.8689 61.088 102.276 61.0849C102.866 61.086 103.45 60.9696 103.995 60.7424C104.54 60.5152 105.034 60.1818 105.448 59.7616C105.863 59.3414 106.189 58.8429 106.409 58.2952C106.629 57.7474 106.738 57.1614 106.728 56.5713C106.728 54.1847 104.697 52.1889 102.274 52.1905Z" fill="white"/>
<path d="M77.6417 50.4977C77.7667 50.3946 77.7839 50.2336 77.8417 50.0992C78.3872 48.8489 78.7701 47.5501 78.8201 46.1701C78.8752 44.6914 78.4694 43.232 77.6589 41.994C76.8071 40.6593 75.6568 39.6075 74.408 38.6573C72.9186 37.5257 71.3198 36.5614 69.7194 35.5971C68.008 34.5672 66.2888 33.5482 64.6618 32.3854C63.1365 31.2913 61.7064 30.102 60.5249 28.6344C59.1714 26.9575 58.3009 25.071 58.0242 22.9205C57.9159 21.9812 57.9044 21.0333 57.9898 20.0917C57.9898 20.0213 58.0149 19.9526 58.0352 19.8447C58.2868 20.2948 58.5197 20.7106 58.7869 21.1075C59.7138 22.447 60.8025 23.667 62.0284 24.7397C64.0007 26.5105 66.1591 28.0358 68.3378 29.5347C70.4867 31.0132 72.6592 32.4573 74.7269 34.0483C76.1975 35.1798 77.6088 36.3801 78.842 37.7727C79.7031 38.7463 80.4424 39.8044 80.9065 41.0297C81.2301 41.862 81.385 42.7502 81.3625 43.6428C81.34 44.5354 81.1404 45.4146 80.7753 46.2295C80.1501 47.7033 79.1639 48.9286 78.1012 50.1008C77.9886 50.2242 77.8698 50.3414 77.7573 50.4649C77.7198 50.5056 77.6854 50.5352 77.6307 50.4946L77.6417 50.4977Z" fill="white"/>
<path d="M87.1033 38.9153C87.0252 38.4464 86.9564 38.0182 86.883 37.59C86.6265 35.967 86.1293 34.3915 85.4076 32.9154C84.6821 31.4708 83.6893 30.1768 82.4819 29.1019C82.013 28.6815 81.5738 28.222 81.0753 27.836C80.8096 27.6328 80.4986 27.4984 80.2407 27.2811C80.1596 27.2262 80.0909 27.1548 80.0391 27.0717C80.3219 27.0358 80.5908 26.9936 80.8611 26.967C81.9552 26.8623 83.0633 26.7951 84.1667 26.7294C85.5014 26.6513 86.8345 26.5731 88.1692 26.4919C88.5022 26.4611 88.8376 26.4664 89.1695 26.5075C89.2595 26.5194 89.3458 26.5507 89.4224 26.5993C89.4991 26.6478 89.5642 26.7125 89.6133 26.7888C89.643 26.831 89.6806 26.867 89.7056 26.9107C89.8415 27.1452 90.0275 27.203 90.3026 27.1592C91.159 27.0233 91.9999 27.0576 92.7673 27.5359C93.1491 27.7515 93.4714 28.0587 93.705 28.4299C93.8613 28.6956 93.8363 28.7424 93.5362 28.7768C92.7613 28.8597 92.0126 29.1054 91.3392 29.4978C90.6659 29.8902 90.0831 30.4205 89.629 31.054C88.8475 32.1073 88.3959 33.3123 88.0208 34.5564C87.6378 35.827 87.4862 37.143 87.2393 38.4402C87.2174 38.5621 87.1862 38.6824 87.158 38.8028C87.144 38.8278 87.1299 38.8512 87.1033 38.9153Z" fill="white"/>
<path d="M83.3101 56.643V49.9054C83.3101 49.5397 83.4163 49.4365 83.7789 49.4365H85.72C86.1123 49.4365 86.2139 49.535 86.2139 49.9241C86.2139 52.7728 86.2139 55.6225 86.2139 58.4732C86.2139 60.1152 86.2139 61.7578 86.2139 63.401C86.2139 63.7714 86.1045 63.8698 85.7279 63.8698H83.8524C83.4085 63.8698 83.3101 63.7745 83.3101 63.3353V56.643Z" fill="white"/>
<path d="M77.6431 50.4966C77.6521 50.5116 77.6717 50.5327 77.6687 50.5402C77.6657 50.5478 77.6476 50.5523 77.6521 50.5282C77.6567 50.5041 77.6521 50.5086 77.6416 50.4981L77.6431 50.4966Z" fill="white"/>
</g>
<defs>
<clipPath id="clip0_641_6682">
<rect width="59.6431" height="56" fill="white" transform="translate(50 8)"/>
</clipPath>
</defs>
</svg>
