<svg width="18" height="18" viewBox="0 0 18 18" fill="none" xmlns="http://www.w3.org/2000/svg">
<path d="M13.1175 7.19998L4.2 12.5775C3.675 12.8925 3 12.5175 3 11.9025V5.90248C3 3.28498 5.8275 1.64998 8.1 2.95498L11.5425 4.93498L13.11 5.83498C13.6275 6.14248 13.635 6.89248 13.1175 7.19998Z" fill="white"/>
<path d="M13.5675 11.595L10.53 13.35L7.49998 15.0975C6.41248 15.72 5.18248 15.5925 4.28998 14.9625C3.85498 14.6625 3.90748 13.995 4.36498 13.725L13.8975 8.00998C14.3475 7.73998 14.94 7.99498 15.0225 8.51248C15.21 9.67498 14.73 10.9275 13.5675 11.595Z" fill="white"/>
</svg>
