<svg width="192" height="56" viewBox="0 0 192 56" fill="none" xmlns="http://www.w3.org/2000/svg">
<g clip-path="url(#clip0_641_10644)">
<path d="M184.888 0H7.11108C3.18374 0 0 3.13399 0 6.99997V48.9998C0 52.8657 3.18374 55.9997 7.11108 55.9997H184.888C188.815 55.9997 191.999 52.8657 191.999 48.9998V6.99997C191.999 3.13399 188.815 0 184.888 0Z" fill="#212529"/>
<path d="M46.6449 28.4212C46.6602 27.2527 46.9755 26.107 47.5615 25.0907C48.1475 24.0743 48.9851 23.2204 49.9965 22.6084C49.354 21.7051 48.5064 20.9618 47.5211 20.4374C46.5357 19.9131 45.4397 19.6221 44.3202 19.5876C41.9319 19.3408 39.6166 20.9944 38.3996 20.9944C37.159 20.9944 35.2852 19.6121 33.2675 19.653C31.9624 19.6945 30.6904 20.0681 29.5756 20.7374C28.4607 21.4066 27.541 22.3488 26.906 23.472C24.1554 28.1598 26.2071 35.0492 28.8419 38.8385C30.1602 40.694 31.7009 42.7666 33.7168 42.6931C35.6895 42.6126 36.4263 41.4548 38.8075 41.4548C41.1666 41.4548 41.8579 42.6931 43.9147 42.6464C46.0315 42.6126 47.3652 40.7827 48.6372 38.9096C49.5844 37.5875 50.3132 36.1263 50.7967 34.5801C49.5669 34.0681 48.5174 33.211 47.7791 32.1158C47.0408 31.0206 46.6464 29.7357 46.6449 28.4212Z" fill="white"/>
<path d="M42.7601 17.0949C43.9143 15.731 44.4829 13.9779 44.3452 12.208C42.5819 12.3903 40.9531 13.2199 39.7834 14.5315C39.2114 15.1722 38.7734 15.9176 38.4943 16.7251C38.2152 17.5326 38.1005 18.3863 38.1567 19.2374C39.0387 19.2463 39.9113 19.0582 40.7086 18.687C41.506 18.3159 42.2075 17.7715 42.7601 17.0949Z" fill="white"/>
<path d="M71.5813 37.9956H64.8494L63.2327 42.6946H60.3813L66.7577 25.3094H69.7202L76.0966 42.6946H73.1966L71.5813 37.9956ZM65.5466 35.8272H70.8828L68.2522 28.201H68.1786L65.5466 35.8272Z" fill="white"/>
<path d="M89.8675 36.3577C89.8675 40.2966 87.7258 42.8272 84.4938 42.8272C83.6751 42.8694 82.8609 42.6837 82.1444 42.2915C81.4279 41.8993 80.8381 41.3165 80.4425 40.6096H80.3813V46.8878H77.7382V30.0194H80.2966V32.1276H80.3452C80.759 31.4242 81.3588 30.8443 82.0808 30.4497C82.8028 30.0551 83.6199 29.8606 84.4452 29.8868C87.7132 29.8868 89.8675 32.4298 89.8675 36.3577ZM87.1508 36.3577C87.1508 33.7915 85.8036 32.1044 83.748 32.1044C81.7286 32.1044 80.3702 33.827 80.3702 36.3577C80.3702 38.9116 81.7286 40.622 83.748 40.622C85.8036 40.622 87.1508 38.9471 87.1508 36.3577Z" fill="white"/>
<path d="M104.04 36.3577C104.04 40.2966 101.898 42.8272 98.6661 42.8272C97.8474 42.8694 97.0331 42.6837 96.3166 42.2915C95.6001 41.8993 95.0103 41.3165 94.6147 40.6096H94.5535V46.8878H91.9105V30.0194H94.4688V32.1276H94.5174C94.9312 31.4242 95.531 30.8443 96.253 30.4497C96.9749 30.0551 97.7921 29.8606 98.6174 29.8868C101.886 29.8868 104.04 32.4298 104.04 36.3577ZM101.323 36.3577C101.323 33.7915 99.9758 32.1044 97.9202 32.1044C95.9008 32.1044 94.5424 33.827 94.5424 36.3577C94.5424 38.9116 95.9008 40.622 97.9202 40.622C99.9758 40.622 101.323 38.9471 101.323 36.3577Z" fill="white"/>
<path d="M113.406 37.8507C113.602 39.5747 115.304 40.7067 117.629 40.7067C119.856 40.7067 121.459 39.5746 121.459 38.0201C121.459 36.6707 120.492 35.8627 118.204 35.309L115.915 34.7662C112.672 33.9951 111.166 32.5022 111.166 30.0795C111.166 27.0799 113.822 25.0195 117.592 25.0195C121.324 25.0195 123.883 27.0799 123.969 30.0795H121.301C121.141 28.3445 119.684 27.2973 117.555 27.2973C115.426 27.2973 113.969 28.3568 113.969 29.899C113.969 31.1281 114.899 31.8514 117.176 32.405L119.122 32.8753C122.745 33.7189 124.251 35.1518 124.251 37.6947C124.251 40.9472 121.619 42.9843 117.433 42.9843C113.516 42.9843 110.872 40.9951 110.701 37.8505L113.406 37.8507Z" fill="white"/>
<path d="M129.955 27.0198V30.0194H132.404V32.0798H129.955V39.0675C129.955 40.153 130.445 40.6589 131.522 40.6589C131.812 40.6539 132.103 40.6338 132.391 40.5987V42.6467C131.907 42.7357 131.415 42.776 130.923 42.767C128.316 42.767 127.299 41.8031 127.299 39.3449V32.0798H125.427V30.0194H127.299V27.0198H129.955Z" fill="white"/>
<path d="M133.822 36.3577C133.822 32.3696 136.208 29.8636 139.929 29.8636C143.662 29.8636 146.037 32.3696 146.037 36.3577C146.037 40.3567 143.674 42.8518 139.929 42.8518C136.184 42.8518 133.822 40.3567 133.822 36.3577ZM143.344 36.3577C143.344 33.622 142.07 32.0073 139.929 32.0073C137.787 32.0073 136.515 33.6343 136.515 36.3577C136.515 39.1044 137.787 40.7067 139.929 40.7067C142.07 40.7067 143.344 39.1044 143.344 36.3577Z" fill="white"/>
<path d="M148.216 30.0194H150.737V32.1768H150.798C150.969 31.503 151.37 30.9075 151.934 30.4905C152.498 30.0735 153.19 29.8603 153.895 29.8868C154.2 29.8857 154.504 29.9183 154.801 29.9838V32.4174C154.416 32.3018 154.015 32.2487 153.613 32.2602C153.229 32.2449 152.847 32.3115 152.491 32.4556C152.136 32.5996 151.816 32.8176 151.555 33.0947C151.293 33.3717 151.095 33.7012 150.975 34.0606C150.855 34.4199 150.816 34.8006 150.859 35.1764V42.6946H148.216L148.216 30.0194Z" fill="white"/>
<path d="M166.987 38.9717C166.631 41.2727 164.355 42.8518 161.442 42.8518C157.697 42.8518 155.372 40.3813 155.372 36.4178C155.372 32.4421 157.709 29.8635 161.331 29.8635C164.894 29.8635 167.134 32.2725 167.134 36.1157V37.0071H158.04V37.1643C157.998 37.6308 158.057 38.1007 158.214 38.5429C158.37 38.9851 158.621 39.3894 158.949 39.729C159.276 40.0685 159.673 40.3356 160.114 40.5124C160.554 40.6892 161.028 40.7718 161.504 40.7545C162.128 40.8122 162.755 40.6698 163.291 40.3485C163.826 40.0273 164.243 39.5445 164.477 38.9717L166.987 38.9717ZM158.052 35.1887H164.49C164.513 34.7693 164.449 34.3496 164.3 33.9559C164.151 33.5622 163.921 33.203 163.625 32.901C163.328 32.5989 162.971 32.3604 162.577 32.2005C162.182 32.0406 161.758 31.9627 161.331 31.9717C160.901 31.9692 160.474 32.0506 160.076 32.2113C159.678 32.3719 159.316 32.6086 159.011 32.9077C158.706 33.2068 158.464 33.5623 158.3 33.9538C158.135 34.3454 158.051 34.765 158.052 35.1887Z" fill="white"/>
<path d="M65.2159 12.2236C65.77 12.1845 66.3261 12.2669 66.8439 12.4649C67.3618 12.6629 67.8285 12.9716 68.2105 13.3686C68.5925 13.7657 68.8802 14.2413 69.0528 14.7611C69.2255 15.2808 69.2788 15.8319 69.209 16.3744C69.209 19.0431 67.7437 20.5772 65.2159 20.5772H62.1506V12.2236H65.2159ZM63.4687 19.3958H65.0687C65.4646 19.4191 65.8609 19.3552 66.2286 19.2087C66.5963 19.0623 66.9262 18.837 67.1943 18.5492C67.4623 18.2614 67.6619 17.9184 67.7783 17.5451C67.8947 17.1718 67.9251 16.7777 67.8673 16.3914C67.9209 16.0066 67.8874 15.615 67.7692 15.2444C67.651 14.8739 67.451 14.5337 67.1835 14.2482C66.9161 13.9627 66.5877 13.739 66.2221 13.593C65.8565 13.4471 65.4626 13.3826 65.0687 13.4041H63.4687V19.3958Z" fill="white"/>
<path d="M70.6978 17.4223C70.6576 17.008 70.7057 16.59 70.8392 16.1951C70.9727 15.8002 71.1885 15.4371 71.4728 15.1292C71.7572 14.8212 72.1038 14.5751 72.4905 14.4067C72.8771 14.2383 73.2952 14.1514 73.718 14.1514C74.1408 14.1514 74.5589 14.2383 74.9455 14.4067C75.3322 14.5751 75.6788 14.8212 75.9631 15.1292C76.2475 15.4371 76.4633 15.8002 76.5968 16.1951C76.7302 16.59 76.7784 17.008 76.7381 17.4223C76.7792 17.837 76.7316 18.2556 76.5985 18.6511C76.4654 19.0466 76.2497 19.4104 75.9652 19.719C75.6808 20.0275 75.3339 20.2741 74.9469 20.4429C74.5599 20.6116 74.1413 20.6988 73.718 20.6988C73.2947 20.6988 72.8761 20.6116 72.4891 20.4429C72.1021 20.2741 71.7552 20.0275 71.4707 19.719C71.1863 19.4104 70.9706 19.0466 70.8375 18.6511C70.7044 18.2556 70.6568 17.837 70.6978 17.4223ZM75.4381 17.4223C75.4381 16.0558 74.8145 15.2567 73.7201 15.2567C72.6215 15.2567 72.0034 16.0558 72.0034 17.4223C72.0034 18.7997 72.6215 19.5927 73.7201 19.5927C74.8145 19.5927 75.4381 18.7943 75.4381 17.4223Z" fill="white"/>
<path d="M84.7673 20.5771H83.4562L82.1326 15.9341H82.0326L80.7145 20.5771H79.4159L77.6506 14.273H78.9326L80.0798 19.0834H80.1743L81.4909 14.273H82.7034L84.0201 19.0834H84.1201L85.2617 14.273H86.5256L84.7673 20.5771Z" fill="white"/>
<path d="M88.0104 14.273H89.227V15.2744H89.3215C89.4817 14.9147 89.7519 14.6132 90.0945 14.4119C90.4371 14.2106 90.8349 14.1195 91.2326 14.1513C91.5442 14.1282 91.8571 14.1745 92.1481 14.2866C92.439 14.3987 92.7007 14.5739 92.9135 14.7991C93.1264 15.0242 93.2851 15.2937 93.3778 15.5874C93.4706 15.8812 93.495 16.1917 93.4492 16.496V20.577H92.1854V16.8084C92.1854 15.7953 91.7381 15.2915 90.8034 15.2915C90.5918 15.2818 90.3806 15.3173 90.1843 15.3954C89.9879 15.4736 89.8111 15.5926 89.6658 15.7444C89.5206 15.8961 89.4104 16.077 89.3428 16.2745C89.2752 16.4721 89.2518 16.6818 89.2742 16.8891V20.5771H88.0103L88.0104 14.273Z" fill="white"/>
<path d="M95.4631 11.812H96.727V20.577H95.4631V11.812Z" fill="white"/>
<path d="M98.484 17.4223C98.4437 17.008 98.4919 16.59 98.6254 16.195C98.7589 15.8001 98.9747 15.437 99.2591 15.1291C99.5435 14.8211 99.8902 14.575 100.277 14.4066C100.663 14.2382 101.082 14.1512 101.504 14.1512C101.927 14.1512 102.345 14.2382 102.732 14.4066C103.119 14.575 103.465 14.8211 103.75 15.1291C104.034 15.437 104.25 15.8001 104.383 16.195C104.517 16.59 104.565 17.008 104.525 17.4223C104.566 17.837 104.518 18.2556 104.385 18.6511C104.252 19.0467 104.036 19.4104 103.752 19.719C103.467 20.0275 103.12 20.2741 102.733 20.4429C102.346 20.6116 101.928 20.6988 101.504 20.6988C101.081 20.6988 100.663 20.6116 100.275 20.4429C99.8885 20.2741 99.5416 20.0275 99.2571 19.719C98.9726 19.4104 98.7569 19.0467 98.6237 18.6511C98.4906 18.2556 98.443 17.837 98.484 17.4223ZM103.224 17.4223C103.224 16.0558 102.601 15.2567 101.506 15.2567C100.408 15.2567 99.7896 16.0558 99.7896 17.4223C99.7896 18.7997 100.408 19.5927 101.506 19.5927C102.601 19.5927 103.224 18.7943 103.224 17.4223Z" fill="white"/>
<path d="M105.855 18.7943C105.855 17.6595 106.714 17.0053 108.237 16.9123L109.972 16.8139V16.2698C109.972 15.6039 109.525 15.228 108.661 15.228C107.956 15.228 107.467 15.4829 107.326 15.9286H106.103C106.232 14.8458 107.267 14.1513 108.719 14.1513C110.325 14.1513 111.23 14.9381 111.23 16.2698V20.5771H110.014V19.6911H109.914C109.711 20.0089 109.426 20.268 109.088 20.4419C108.75 20.6158 108.371 20.6983 107.99 20.6809C107.721 20.7085 107.45 20.6802 107.193 20.5981C106.935 20.5159 106.699 20.3816 106.498 20.2038C106.296 20.0261 106.135 19.8088 106.025 19.566C105.914 19.3232 105.857 19.0603 105.855 18.7943ZM109.972 18.2556V17.7285L108.408 17.827C107.526 17.8851 107.126 18.1804 107.126 18.7361C107.126 19.3035 107.626 19.6337 108.314 19.6337C108.515 19.6538 108.719 19.6337 108.912 19.5748C109.106 19.5159 109.285 19.4193 109.44 19.2907C109.595 19.1621 109.721 19.0042 109.813 18.8264C109.904 18.6486 109.958 18.4544 109.972 18.2556Z" fill="white"/>
<path d="M112.892 17.4223C112.892 15.4303 113.932 14.1684 115.55 14.1684C115.95 14.1502 116.347 14.2446 116.695 14.4404C117.043 14.6363 117.327 14.9255 117.514 15.2744H117.608V11.812H118.872V20.577H117.661V19.581H117.561C117.36 19.9275 117.066 20.2132 116.711 20.4071C116.357 20.6009 115.955 20.6956 115.55 20.6809C113.921 20.681 112.892 19.4191 112.892 17.4223ZM114.197 17.4223C114.197 18.7594 114.837 19.564 115.908 19.564C116.974 19.564 117.632 18.7478 117.632 17.4278C117.632 16.1139 116.967 15.2861 115.908 15.2861C114.844 15.2861 114.197 16.0961 114.197 17.4223Z" fill="white"/>
<path d="M124.101 17.4223C124.061 17.008 124.109 16.59 124.243 16.1951C124.376 15.8002 124.592 15.4371 124.876 15.1292C125.161 14.8212 125.507 14.5751 125.894 14.4067C126.281 14.2383 126.699 14.1514 127.121 14.1514C127.544 14.1514 127.962 14.2383 128.349 14.4067C128.736 14.5751 129.082 14.8212 129.367 15.1292C129.651 15.4371 129.867 15.8002 130 16.1951C130.134 16.59 130.182 17.008 130.142 17.4223C130.183 17.837 130.135 18.2556 130.002 18.6511C129.869 19.0466 129.653 19.4104 129.369 19.719C129.084 20.0275 128.737 20.2741 128.35 20.4429C127.963 20.6116 127.545 20.6988 127.121 20.6988C126.698 20.6988 126.28 20.6116 125.893 20.4429C125.506 20.2741 125.159 20.0275 124.874 19.719C124.59 19.4104 124.374 19.0466 124.241 18.6511C124.108 18.2556 124.06 17.837 124.101 17.4223ZM128.842 17.4223C128.842 16.0558 128.218 15.2567 127.124 15.2567C126.025 15.2567 125.407 16.0558 125.407 17.4223C125.407 18.7997 126.025 19.5927 127.124 19.5927C128.218 19.5927 128.842 18.7943 128.842 17.4223Z" fill="white"/>
<path d="M131.837 14.273H133.054V15.2744H133.149C133.309 14.9147 133.579 14.6132 133.922 14.4119C134.264 14.2106 134.662 14.1195 135.06 14.1513C135.371 14.1282 135.684 14.1745 135.975 14.2866C136.266 14.3987 136.528 14.5739 136.741 14.7991C136.954 15.0242 137.112 15.2937 137.205 15.5874C137.298 15.8812 137.322 16.1917 137.276 16.496V20.577H136.012V16.8084C136.012 15.7953 135.565 15.2915 134.631 15.2915C134.419 15.2818 134.208 15.3173 134.011 15.3954C133.815 15.4736 133.638 15.5926 133.493 15.7444C133.348 15.8961 133.237 16.077 133.17 16.2745C133.102 16.4721 133.079 16.6818 133.101 16.8891V20.5771H131.837V14.273Z" fill="white"/>
<path d="M144.418 12.7034V14.3017H145.806V15.3496H144.418V18.5912C144.418 19.2516 144.694 19.5407 145.324 19.5407C145.485 19.5402 145.646 19.5306 145.806 19.512V20.5483C145.579 20.5883 145.349 20.6096 145.118 20.6119C143.712 20.6119 143.153 20.1252 143.153 18.9098V15.3496H142.136V14.3016H143.153V12.7034H144.418Z" fill="white"/>
<path d="M147.532 11.812H148.785V15.286H148.885C149.053 14.923 149.33 14.6198 149.68 14.4177C150.029 14.2156 150.433 14.1245 150.837 14.1567C151.147 14.1401 151.457 14.1911 151.745 14.3059C152.033 14.4208 152.291 14.5967 152.502 14.8212C152.712 15.0457 152.87 15.3132 152.964 15.6046C153.057 15.8959 153.084 16.2041 153.043 16.5069V20.5771H151.778V16.8139C151.778 15.8069 151.301 15.297 150.408 15.297C150.191 15.2794 149.973 15.3088 149.768 15.3831C149.564 15.4574 149.378 15.5747 149.225 15.727C149.071 15.8792 148.953 16.0626 148.879 16.2644C148.805 16.4662 148.777 16.6815 148.796 16.8952V20.577H147.532L147.532 11.812Z" fill="white"/>
<path d="M160.412 18.8749C160.241 19.4511 159.869 19.9494 159.361 20.2829C158.854 20.6163 158.244 20.7635 157.637 20.6987C157.216 20.7097 156.796 20.6301 156.409 20.4656C156.021 20.3011 155.675 20.0555 155.393 19.7459C155.112 19.4363 154.902 19.0701 154.779 18.6728C154.655 18.2754 154.621 17.8564 154.679 17.4448C154.623 17.032 154.657 16.6121 154.78 16.2136C154.904 15.815 155.112 15.4471 155.392 15.1348C155.672 14.8225 156.017 14.5731 156.403 14.4034C156.79 14.2337 157.209 14.1477 157.632 14.1513C159.414 14.1513 160.489 15.3497 160.489 17.3293V17.7634H155.967V17.8331C155.947 18.0645 155.976 18.2973 156.053 18.5168C156.13 18.7362 156.253 18.9374 156.414 19.1075C156.574 19.2775 156.769 19.4126 156.986 19.5042C157.203 19.5957 157.436 19.6417 157.672 19.6391C157.974 19.6749 158.281 19.6213 158.552 19.4852C158.823 19.3491 159.047 19.1366 159.196 18.8749L160.412 18.8749ZM155.967 16.8433H159.201C159.217 16.6317 159.188 16.4192 159.116 16.2194C159.043 16.0196 158.929 15.8369 158.78 15.6831C158.632 15.5293 158.453 15.4078 158.254 15.3263C158.054 15.2449 157.84 15.2053 157.625 15.2102C157.406 15.2075 157.189 15.2479 156.987 15.329C156.784 15.4101 156.6 15.5303 156.446 15.6825C156.291 15.8347 156.169 16.0158 156.087 16.2152C156.005 16.4145 155.964 16.6281 155.967 16.8433Z" fill="white"/>
</g>
<defs>
<clipPath id="clip0_641_10644">
<rect width="192" height="56" fill="white"/>
</clipPath>
</defs>
</svg>
