<svg width="192" height="56" viewBox="0 0 192 56" fill="none" xmlns="http://www.w3.org/2000/svg">
<g clip-path="url(#clip0_641_10628)">
<path d="M184.889 0H7.11111C3.18375 0 0 3.13399 0 6.99997V48.9998C0 52.8657 3.18375 55.9997 7.11111 55.9997H184.889C188.816 55.9997 192 52.8657 192 48.9998V6.99997C192 3.13399 188.816 0 184.889 0Z" fill="#212529"/>
<path d="M67.4397 14.3409C67.4656 14.8547 67.385 15.3682 67.2027 15.8503C67.0205 16.3323 66.7406 16.7728 66.3799 17.145C65.9757 17.5577 65.4875 17.8817 64.9473 18.0958C64.4071 18.31 63.8271 18.4095 63.2452 18.3878C62.6595 18.3929 62.0787 18.2828 61.537 18.0638C60.9952 17.8449 60.5033 17.5216 60.0903 17.1128C59.6773 16.7041 59.3514 16.2182 59.1319 15.6837C58.9124 15.1492 58.8036 14.5769 58.812 14.0005C58.8037 13.424 58.9125 12.8517 59.132 12.3172C59.3516 11.7827 59.6774 11.2968 60.0904 10.888C60.5034 10.4792 60.9952 10.1558 61.537 9.93677C62.0788 9.71772 62.6595 9.60746 63.2452 9.61247C63.8473 9.61068 64.4434 9.73051 64.9966 9.96457C65.5104 10.1696 65.9678 10.4912 66.3314 10.9031L65.5813 11.642C65.2955 11.3109 64.9362 11.0488 64.5311 10.876C64.1261 10.7032 63.6861 10.6243 63.2452 10.6454C62.8013 10.6431 62.3616 10.7291 61.9523 10.8981C61.543 11.0671 61.1725 11.3156 60.8631 11.6289C60.5537 11.9422 60.3117 12.3137 60.1516 12.7212C59.9915 13.1287 59.9166 13.5638 59.9314 14.0005C59.9208 14.6545 60.1078 15.297 60.4686 15.8463C60.8294 16.3956 61.3478 16.8271 61.9581 17.0861C62.5684 17.345 63.243 17.4197 63.8965 17.3007C64.5499 17.1817 65.1528 16.8744 65.6285 16.4177C66.0664 15.9532 66.3203 15.3494 66.3438 14.7161H63.2452V13.7072H67.38C67.4191 13.9162 67.4391 14.1284 67.4397 14.3409Z" fill="white"/>
<path d="M73.9952 10.8327H70.1091V13.4959H73.6133V14.505H70.1091V17.1682H73.9952V18.2004H69.0133V9.80049H73.9952V10.8327Z" fill="white"/>
<path d="M78.6188 18.2004H77.5216V10.8327H75.1382V9.80049H81.0022V10.8327H78.6188V18.2004Z" fill="white"/>
<path d="M85.2453 18.2004V9.80049H86.3411V18.2004H85.2453Z" fill="white"/>
<path d="M91.2049 18.2004H90.1077V10.8327H87.7245V9.80049H93.5883V10.8327H91.2049V18.2004Z" fill="white"/>
<path d="M104.689 17.1149C103.858 17.93 102.733 18.3878 101.561 18.3878C100.388 18.3878 99.2627 17.93 98.4321 17.1149C98.0212 16.7052 97.6982 16.2184 97.4823 15.6834C97.2663 15.1483 97.1619 14.576 97.1751 14.0005C97.1619 13.4249 97.2663 12.8526 97.4823 12.3176C97.6982 11.7825 98.0212 11.2957 98.4321 10.886C98.8426 10.4818 99.3301 10.1613 99.8667 9.94272C100.403 9.72419 100.978 9.61196 101.559 9.61247C102.14 9.61298 102.714 9.72621 103.251 9.94568C103.787 10.1652 104.274 10.4866 104.683 10.8915C105.095 11.3001 105.418 11.7858 105.635 12.3199C105.852 12.8539 105.958 13.4254 105.946 14.0005C105.959 14.576 105.854 15.1482 105.638 15.6832C105.422 16.2181 105.1 16.705 104.689 17.1149ZM99.2418 16.4115C99.8569 17.016 100.691 17.3556 101.56 17.3556C102.429 17.3556 103.263 17.016 103.878 16.4115C104.193 16.0936 104.44 15.7161 104.603 15.3016C104.766 14.8872 104.842 14.4446 104.827 14.0005C104.842 13.5563 104.766 13.1137 104.603 12.6993C104.44 12.2849 104.193 11.9073 103.878 11.5894C103.263 10.9849 102.429 10.6454 101.56 10.6454C100.691 10.6454 99.8569 10.9849 99.2418 11.5894C98.9268 11.9076 98.6805 12.2852 98.5177 12.6996C98.3549 13.1139 98.279 13.5565 98.2946 14.0005C98.279 14.4445 98.3549 14.887 98.5177 15.3014C98.6805 15.7157 98.9268 16.0934 99.2418 16.4115Z" fill="white"/>
<path d="M107.485 18.2004V9.80049H108.82L112.967 16.335H113.014L112.967 14.7161V9.80049H114.064V18.2004H112.92L108.581 11.3494H108.533L108.581 12.9683V18.2004H107.485Z" fill="white"/>
<path d="M67.4397 14.3409C67.4656 14.8547 67.385 15.3682 67.2027 15.8503C67.0205 16.3323 66.7406 16.7728 66.3799 17.145C65.9757 17.5577 65.4875 17.8817 64.9473 18.0958C64.4071 18.31 63.8271 18.4095 63.2452 18.3878C62.6595 18.3929 62.0787 18.2828 61.537 18.0638C60.9952 17.8449 60.5033 17.5216 60.0903 17.1128C59.6773 16.7041 59.3514 16.2182 59.1319 15.6837C58.9124 15.1492 58.8036 14.5769 58.812 14.0005C58.8037 13.424 58.9125 12.8517 59.132 12.3172C59.3516 11.7827 59.6774 11.2968 60.0904 10.888C60.5034 10.4792 60.9952 10.1558 61.537 9.93677C62.0788 9.71772 62.6595 9.60746 63.2452 9.61247C63.8473 9.61068 64.4434 9.73051 64.9966 9.96457C65.5104 10.1696 65.9678 10.4912 66.3314 10.9031L65.5813 11.642C65.2955 11.3109 64.9362 11.0488 64.5311 10.876C64.1261 10.7032 63.6861 10.6243 63.2452 10.6454C62.8013 10.6431 62.3616 10.7291 61.9523 10.8981C61.543 11.0671 61.1725 11.3156 60.8631 11.6289C60.5537 11.9422 60.3117 12.3137 60.1516 12.7212C59.9915 13.1287 59.9166 13.5638 59.9314 14.0005C59.9208 14.6545 60.1078 15.297 60.4686 15.8463C60.8294 16.3956 61.3478 16.8271 61.9581 17.0861C62.5684 17.345 63.243 17.4197 63.8965 17.3007C64.5499 17.1817 65.1528 16.8744 65.6285 16.4177C66.0664 15.9532 66.3203 15.3494 66.3438 14.7161H63.2452V13.7072H67.38C67.4191 13.9162 67.4391 14.1284 67.4397 14.3409Z" stroke="white" stroke-width="0.29037" stroke-miterlimit="10"/>
<path d="M73.9952 10.8327H70.1091V13.4959H73.6133V14.505H70.1091V17.1682H73.9952V18.2004H69.0133V9.80049H73.9952V10.8327Z" stroke="white" stroke-width="0.29037" stroke-miterlimit="10"/>
<path d="M78.6188 18.2004H77.5216V10.8327H75.1382V9.80049H81.0022V10.8327H78.6188V18.2004Z" stroke="white" stroke-width="0.29037" stroke-miterlimit="10"/>
<path d="M85.2453 18.2004V9.80049H86.3411V18.2004H85.2453Z" stroke="white" stroke-width="0.29037" stroke-miterlimit="10"/>
<path d="M91.2049 18.2004H90.1077V10.8327H87.7245V9.80049H93.5883V10.8327H91.2049V18.2004Z" stroke="white" stroke-width="0.29037" stroke-miterlimit="10"/>
<path d="M104.689 17.1149C103.858 17.93 102.733 18.3878 101.561 18.3878C100.388 18.3878 99.2627 17.93 98.4321 17.1149C98.0212 16.7052 97.6982 16.2184 97.4823 15.6834C97.2663 15.1483 97.1619 14.576 97.1751 14.0005C97.1619 13.4249 97.2663 12.8526 97.4823 12.3176C97.6982 11.7825 98.0212 11.2957 98.4321 10.886C98.8426 10.4818 99.3301 10.1613 99.8667 9.94272C100.403 9.72419 100.978 9.61196 101.559 9.61247C102.14 9.61298 102.714 9.72621 103.251 9.94568C103.787 10.1652 104.274 10.4866 104.683 10.8915C105.095 11.3001 105.418 11.7858 105.635 12.3199C105.852 12.8539 105.958 13.4254 105.946 14.0005C105.959 14.576 105.854 15.1482 105.638 15.6832C105.422 16.2181 105.1 16.705 104.689 17.1149ZM99.2418 16.4115C99.8569 17.016 100.691 17.3556 101.56 17.3556C102.429 17.3556 103.263 17.016 103.878 16.4115C104.193 16.0936 104.44 15.7161 104.603 15.3016C104.766 14.8872 104.842 14.4446 104.827 14.0005C104.842 13.5563 104.766 13.1137 104.603 12.6993C104.44 12.2849 104.193 11.9073 103.878 11.5894C103.263 10.9849 102.429 10.6454 101.56 10.6454C100.691 10.6454 99.8569 10.9849 99.2418 11.5894C98.9268 11.9076 98.6805 12.2852 98.5177 12.6996C98.3549 13.1139 98.279 13.5565 98.2946 14.0005C98.279 14.4445 98.3549 14.887 98.5177 15.3014C98.6805 15.7157 98.9268 16.0934 99.2418 16.4115Z" stroke="white" stroke-width="0.29037" stroke-miterlimit="10"/>
<path d="M107.485 18.2004V9.80049H108.82L112.967 16.335H113.014L112.967 14.7161V9.80049H114.064V18.2004H112.92L108.581 11.3494H108.533L108.581 12.9683V18.2004H107.485Z" stroke="white" stroke-width="0.29037" stroke-miterlimit="10"/>
<path d="M96.9043 30.4528C95.7089 30.4573 94.5417 30.8103 93.55 31.4673C92.5582 32.1242 91.7865 33.0558 91.3322 34.1442C90.8779 35.2326 90.7613 36.4291 90.9973 37.5827C91.2333 38.7362 91.8112 39.7951 92.6581 40.6256C93.505 41.4561 94.5829 42.0209 95.7556 42.2488C96.9284 42.4768 98.1435 42.3575 99.2474 41.9062C100.351 41.4548 101.295 40.6916 101.958 39.7129C102.622 38.7342 102.976 37.5838 102.976 36.4071C102.988 35.6201 102.839 34.8387 102.537 34.1096C102.236 33.3805 101.789 32.7185 101.223 32.1629C100.656 31.6074 99.9818 31.1697 99.24 30.8759C98.4981 30.5821 97.7038 30.4382 96.9043 30.4528ZM96.9043 40.0159C96.1682 40.0675 95.4332 39.8998 94.7952 39.5346C94.1572 39.1693 93.6457 38.6235 93.3273 37.9681C93.0089 37.3127 92.8983 36.5781 93.0099 35.8599C93.1216 35.1418 93.4503 34.4733 93.9533 33.9417C94.4562 33.41 95.1102 33.0397 95.8299 32.879C96.5497 32.7182 97.3019 32.7746 97.9887 33.0406C98.6755 33.3066 99.265 33.77 99.6805 34.3705C100.096 34.9709 100.318 35.6806 100.318 36.4071C100.341 36.8661 100.269 37.3248 100.109 37.7563C99.9484 38.1878 99.7019 38.5833 99.3838 38.9196C99.0656 39.2559 98.6824 39.5261 98.2566 39.7144C97.8308 39.9026 97.371 40.0052 96.9043 40.0159ZM83.6586 30.4528C82.4632 30.4572 81.2959 30.8102 80.3042 31.4672C79.3124 32.1242 78.5407 33.0557 78.0863 34.1441C77.632 35.2325 77.5155 36.429 77.7514 37.5826C77.9874 38.7362 78.5653 39.795 79.4122 40.6255C80.2591 41.456 81.3369 42.0209 82.5097 42.2488C83.6825 42.4768 84.8976 42.3575 86.0015 41.9062C87.1055 41.4548 88.0489 40.6916 88.7125 39.7129C89.3762 38.7342 89.7304 37.5838 89.7304 36.4071C89.7421 35.6201 89.5929 34.8388 89.2916 34.1096C88.9904 33.3805 88.5432 32.7185 87.9767 32.163C87.4102 31.6074 86.736 31.1698 85.9942 30.876C85.2524 30.5822 84.4581 30.4383 83.6586 30.4528ZM83.6586 40.0159C82.9224 40.0675 82.1875 39.8998 81.5495 39.5346C80.9115 39.1693 80.4 38.6235 80.0816 37.9681C79.7632 37.3127 79.6526 36.5781 79.7642 35.8599C79.8759 35.1418 80.2046 34.4733 80.7075 33.9417C81.2105 33.41 81.8644 33.0397 82.5842 32.879C83.304 32.7182 84.0562 32.7746 84.743 33.0406C85.4298 33.3066 86.0193 33.77 86.4348 34.3705C86.8503 34.9709 87.0725 35.6806 87.0725 36.4071C87.0949 36.8661 87.0237 37.3248 86.8632 37.7563C86.7027 38.1878 86.4562 38.5833 86.1381 38.9196C85.8199 39.2559 85.4367 39.5261 85.0109 39.7144C84.5851 39.9027 84.1253 40.0052 83.6586 40.0159ZM67.9021 32.2798V34.8058H74.0428C73.9542 35.9906 73.4617 37.1113 72.6451 37.986C72.0297 38.6035 71.2897 39.0871 70.4727 39.4056C69.6558 39.7241 68.7801 39.8706 67.9021 39.8354C66.1072 39.8115 64.3941 39.0928 63.1334 37.835C61.8728 36.5771 61.166 34.8812 61.166 33.1142C61.166 31.3472 61.8728 29.6513 63.1334 28.3934C64.3941 27.1355 66.1072 26.4169 67.9021 26.393C69.6261 26.3708 71.2894 27.0192 72.5306 28.1973L74.3406 26.4155C73.4938 25.5902 72.4881 24.9397 71.3825 24.502C70.2768 24.0644 69.0936 23.8484 67.9021 23.8668C66.6569 23.849 65.4206 24.075 64.2649 24.5317C63.1093 24.9884 62.0574 25.6667 61.1704 26.5272C60.2835 27.3876 59.5792 28.4131 59.0984 29.5439C58.6177 30.6747 58.3701 31.8883 58.3701 33.1142C58.3701 34.34 58.6177 35.5536 59.0984 36.6844C59.5792 37.8153 60.2835 38.8407 61.1704 39.7012C62.0574 40.5617 63.1093 41.24 64.2649 41.6967C65.4206 42.1534 66.6569 42.3794 67.9021 42.3616C69.1187 42.4112 70.3322 42.2056 71.462 41.7585C72.5918 41.3113 73.6121 40.6327 74.4551 39.7678C75.9519 38.1596 76.7497 36.0385 76.6778 33.8586C76.6836 33.3292 76.6375 32.8005 76.5401 32.2798H67.9021ZM132.341 34.2419C131.977 33.1634 131.285 32.2212 130.359 31.5433C129.432 30.8654 128.316 30.4846 127.162 30.4528C126.385 30.4575 125.617 30.6174 124.904 30.9226C124.192 31.2279 123.549 31.6722 123.016 32.2288C122.483 32.7853 122.07 33.4426 121.802 34.1607C121.534 34.8789 121.417 35.6431 121.457 36.4071C121.44 37.19 121.583 37.9682 121.877 38.6955C122.172 39.4227 122.613 40.084 123.174 40.6398C123.734 41.1956 124.402 41.6345 125.139 41.9303C125.875 42.2262 126.665 42.3728 127.46 42.3616C128.457 42.367 129.439 42.1287 130.319 41.6681C131.199 41.2075 131.948 40.5391 132.501 39.7227L130.439 38.3695C130.13 38.8745 129.693 39.2918 129.171 39.5804C128.648 39.8691 128.059 40.0191 127.46 40.0159C126.844 40.0391 126.235 39.8794 125.712 39.5577C125.189 39.236 124.776 38.767 124.527 38.2116L132.616 34.9186L132.341 34.2419ZM124.092 36.2268C124.064 35.7934 124.123 35.3588 124.267 34.9484C124.412 34.5379 124.638 34.1599 124.932 33.8365C125.226 33.5131 125.583 33.2507 125.982 33.0647C126.381 32.8787 126.813 32.7729 127.254 32.7534C127.713 32.7237 128.17 32.8276 128.57 33.0522C128.969 33.2768 129.292 33.6122 129.499 34.0165L124.092 36.2268ZM117.516 42.0006H120.174V24.4985H117.516V42.0006ZM113.163 31.7835H113.071C112.667 31.3513 112.174 31.0091 111.625 30.7796C111.075 30.5501 110.483 30.4387 109.886 30.4528C108.326 30.5181 106.853 31.174 105.772 32.2835C104.692 33.3931 104.089 34.8704 104.089 36.4072C104.089 37.9439 104.692 39.4213 105.772 40.5308C106.853 41.6403 108.326 42.2962 109.886 42.3616C110.485 42.3772 111.08 42.2643 111.63 42.0306C112.18 41.7969 112.672 41.4481 113.071 41.0083H113.163V41.8654C113.163 44.1435 111.925 45.3613 109.932 45.3613C109.268 45.3457 108.623 45.1357 108.08 44.7581C107.538 44.3805 107.121 43.8524 106.885 43.2412L104.57 44.1885C105.007 45.2339 105.75 46.1272 106.705 46.7541C107.66 47.3809 108.784 47.7127 109.932 47.707C113.048 47.707 115.683 45.9027 115.683 41.5045V30.8136H113.163V31.7835ZM110.115 40.0159C109.197 39.9392 108.341 39.5258 107.717 38.8575C107.093 38.1892 106.747 37.3147 106.747 36.4072C106.747 35.4996 107.093 34.6252 107.717 33.9569C108.341 33.2886 109.197 32.8752 110.115 32.7985C110.572 32.8204 111.02 32.9328 111.432 33.1288C111.844 33.3247 112.212 33.6004 112.513 33.9392C112.815 34.2781 113.044 34.6732 113.187 35.1011C113.33 35.529 113.384 35.9808 113.346 36.4296C113.382 36.8757 113.326 37.3243 113.181 37.7486C113.037 38.1729 112.807 38.5641 112.505 38.8989C112.204 39.2337 111.837 39.5052 111.426 39.6971C111.015 39.889 110.57 39.9974 110.115 40.0159ZM144.791 24.4988H138.432V42.0006H141.085V35.3697H144.791C145.541 35.4102 146.292 35.2997 146.998 35.0448C147.704 34.7899 148.349 34.3961 148.895 33.8874C149.441 33.3787 149.876 32.7658 150.173 32.0861C150.47 31.4064 150.623 30.6742 150.623 29.9342C150.623 29.1943 150.47 28.4621 150.173 27.7824C149.876 27.1027 149.441 26.4898 148.895 25.9811C148.349 25.4723 147.704 25.0785 146.998 24.8237C146.292 24.5688 145.541 24.4583 144.791 24.4988ZM144.859 32.934H141.085V26.9346H144.859C145.265 26.9263 145.668 26.9978 146.045 27.1448C146.422 27.2919 146.765 27.5115 147.055 27.7909C147.345 28.0702 147.575 28.4037 147.732 28.7718C147.889 29.1398 147.97 29.5351 147.97 29.9343C147.97 30.3335 147.889 30.7288 147.732 31.0968C147.575 31.4649 147.345 31.7984 147.055 32.0777C146.765 32.3571 146.422 32.5767 146.045 32.7238C145.668 32.8708 145.265 32.9423 144.859 32.934ZM161.26 30.4206C160.291 30.3649 159.327 30.5888 158.486 31.0648C157.645 31.5408 156.963 32.2481 156.525 33.1L158.881 34.0683C159.114 33.6454 159.468 33.2988 159.899 33.0709C160.329 32.8429 160.818 32.7435 161.305 32.7848C161.979 32.7201 162.65 32.9208 163.173 33.3428C163.697 33.7649 164.028 34.3739 164.096 35.0364V35.2166C163.244 34.7709 162.293 34.5389 161.328 34.5411C158.789 34.5411 156.205 35.9146 156.205 38.4815C156.229 39.0224 156.364 39.553 156.601 40.0417C156.838 40.5304 157.172 40.9673 157.584 41.3264C157.996 41.6855 158.477 41.9596 158.998 42.1322C159.519 42.3049 160.071 42.3728 160.619 42.3317C161.287 42.3705 161.954 42.2321 162.549 41.9312C163.145 41.6302 163.647 41.1776 164.005 40.6205H164.096V41.9715H166.658V35.2616C166.658 32.1543 164.302 30.4206 161.26 30.4206ZM160.939 40.0125C160.07 40.0125 158.858 39.5848 158.858 38.5264C158.858 37.1756 160.368 36.6576 161.671 36.6576C162.518 36.6354 163.356 36.8376 164.096 37.243C163.999 38.0022 163.625 38.7009 163.045 39.21C162.465 39.7191 161.717 40.0042 160.939 40.0125ZM175.991 30.8034L172.948 38.3913H172.857L169.7 30.8034H166.841L171.576 41.4086L168.877 47.3079H171.644L178.941 30.8034H175.991ZM152.087 42.0006H154.741V24.4988H152.087V42.0006Z" fill="white"/>
<path d="M14.8414 10.5533C14.375 11.1022 14.1395 11.8059 14.1831 12.5201V43.4825C14.1394 44.1968 14.3749 44.9006 14.8414 45.4494L14.9466 45.5503L32.5665 28.206V27.7967L14.9466 10.4517L14.8414 10.5533Z" fill="url(#paint0_linear_641_10628)"/>
<path d="M38.4393 33.9898L32.5664 28.2059V27.7967L38.4408 22.0142L38.5732 22.0885L45.5318 25.9806C47.5195 27.0922 47.5195 28.9111 45.5318 30.0234L38.5732 33.9155L38.4393 33.9898Z" fill="url(#paint1_linear_641_10628)"/>
<path d="M38.573 33.9149L32.5662 28.0015L14.8411 45.4494C15.2461 45.8011 15.7633 46.0021 16.3031 46.0178C16.8428 46.0335 17.3712 45.8629 17.7966 45.5354L38.573 33.9149Z" fill="url(#paint2_linear_641_10628)"/>
<path d="M38.573 22.0878L17.7966 10.4673C17.3712 10.1399 16.8428 9.96918 16.3031 9.98488C15.7633 10.0006 15.2461 10.2017 14.8411 10.5533L32.5662 28.0014L38.573 22.0878Z" fill="url(#paint3_linear_641_10628)"/>
<path opacity="0.2" d="M38.4406 33.7847L17.7966 45.3308C17.3876 45.6373 16.8884 45.8046 16.3743 45.8073C15.8603 45.81 15.3593 45.648 14.947 45.3458L14.8411 45.4501L14.9463 45.551L14.947 45.5503C15.3593 45.8527 15.8603 46.0148 16.3743 46.0121C16.8884 46.0094 17.3876 45.842 17.7966 45.5354L38.573 33.9149L38.4406 33.7847Z" fill="black"/>
<path opacity="0.12" d="M14.8413 45.2457C14.375 44.6967 14.1395 43.9931 14.1831 43.2788V43.4833C14.1395 44.1976 14.375 44.9013 14.8413 45.4502L14.9473 45.3459L14.8413 45.2457Z" fill="black"/>
<path opacity="0.12" d="M45.532 29.8187L38.4409 33.7851L38.5733 33.9153L45.532 30.0232C45.9413 29.8483 46.2955 29.5686 46.5577 29.2132C46.82 28.8578 46.9806 28.4397 47.0229 28.0024C46.9349 28.3984 46.7543 28.7688 46.4955 29.084C46.2367 29.3993 45.9068 29.6508 45.532 29.8187Z" fill="black"/>
<path opacity="0.25" d="M17.7966 10.6724L45.5316 26.1843C45.9066 26.3521 46.2366 26.6037 46.4955 26.9191C46.7543 27.2345 46.9348 27.6051 47.0225 28.0012C46.9805 27.5638 46.82 27.1454 46.5578 26.7899C46.2955 26.4343 45.9412 26.1545 45.5316 25.9798L17.7966 10.4678C15.8089 9.35611 14.1829 10.2795 14.1829 12.5207V12.7252C14.1829 10.4842 15.8089 9.56079 17.7966 10.6724Z" fill="white"/>
</g>
<defs>
<linearGradient id="paint0_linear_641_10628" x1="31.004" y1="12.1937" x2="7.51163" y2="36.059" gradientUnits="userSpaceOnUse">
<stop stop-color="#00A0FF"/>
<stop offset="0.00657" stop-color="#00A1FF"/>
<stop offset="0.2601" stop-color="#00BEFF"/>
<stop offset="0.5122" stop-color="#00D2FF"/>
<stop offset="0.7604" stop-color="#00DFFF"/>
<stop offset="1" stop-color="#00E3FF"/>
</linearGradient>
<linearGradient id="paint1_linear_641_10628" x1="48.1198" y1="28.002" x2="13.7064" y2="28.002" gradientUnits="userSpaceOnUse">
<stop stop-color="#FFE000"/>
<stop offset="0.4087" stop-color="#FFBD00"/>
<stop offset="0.7754" stop-color="#FFA500"/>
<stop offset="1" stop-color="#FF9C00"/>
</linearGradient>
<linearGradient id="paint2_linear_641_10628" x1="35.309" y1="31.2146" x2="3.45157" y2="63.5779" gradientUnits="userSpaceOnUse">
<stop stop-color="#FF3A44"/>
<stop offset="1" stop-color="#C31162"/>
</linearGradient>
<linearGradient id="paint3_linear_641_10628" x1="10.378" y1="0.246781" x2="24.6037" y2="14.6983" gradientUnits="userSpaceOnUse">
<stop stop-color="#32A071"/>
<stop offset="0.0685" stop-color="#2DA771"/>
<stop offset="0.4762" stop-color="#15CF74"/>
<stop offset="0.8009" stop-color="#06E775"/>
<stop offset="1" stop-color="#00F076"/>
</linearGradient>
<clipPath id="clip0_641_10628">
<rect width="192" height="56" fill="white"/>
</clipPath>
</defs>
</svg>
