<svg width="36" height="36" viewBox="0 0 36 36" fill="none" xmlns="http://www.w3.org/2000/svg">
<rect width="36" height="36" rx="18" fill="#228BE6"/>
<path fill-rule="evenodd" clip-rule="evenodd" d="M23 9.5C23 9.224 22.775 9 22.5 9H20C17.238 9 15 11.015 15 13.5V16.2H12.5C12.224 16.2 12 16.424 12 16.7V19.3C12 19.576 12.224 19.8 12.5 19.8H15V26.5C15 26.776 15.224 27 15.5 27H18.5C18.775 27 19 26.776 19 26.5V19.8H21.619C21.844 19.8 22.041 19.65 22.102 19.434L22.823 16.834C22.912 16.516 22.672 16.2 22.342 16.2H19V13.5C19 13.003 19.447 12.6 20 12.6H22.5C22.775 12.6 23 12.376 23 12.1V9.5Z" fill="white"/>
</svg>
