<svg width="36" height="36" viewBox="0 0 36 36" fill="none" xmlns="http://www.w3.org/2000/svg">
<rect width="36" height="36" rx="18" fill="#FBFBFB"/>
<path fill-rule="evenodd" clip-rule="evenodd" d="M18 36C27.9411 36 36 27.9411 36 18C36 8.05887 27.9411 0 18 0C8.05887 0 0 8.05887 0 18C0 27.9411 8.05887 36 18 36ZM15.862 14.7729C16.5208 14.3326 17.2954 14.0977 18.0877 14.0977C18.6138 14.0977 19.1347 14.2013 19.6208 14.4026C20.1068 14.604 20.5485 14.8991 20.9205 15.2711C21.2925 15.6431 21.5876 16.0847 21.7889 16.5708C21.9902 17.0568 22.0938 17.5778 22.0938 18.1038C22.0938 18.8962 21.8589 19.6707 21.4187 20.3295C20.9785 20.9884 20.3528 21.5018 19.6208 21.8051C18.8888 22.1083 18.0833 22.1876 17.3061 22.033C16.529 21.8784 15.8152 21.4969 15.2549 20.9366C14.6946 20.3764 14.3131 19.6625 14.1585 18.8854C14.0039 18.1083 14.0833 17.3028 14.3865 16.5708C14.6897 15.8387 15.2032 15.2131 15.862 14.7729ZM29.3954 25.9708C29.7608 25.0419 29.9735 24.0599 30.0254 23.0631V23.0469C30.0484 22.4417 30.035 22.0472 30.0146 21.4447C29.992 20.7768 29.9608 19.8533 29.9608 18.1038V13.1608C29.9314 12.162 29.7404 11.1746 29.3954 10.2369C29.1081 9.46498 28.6561 8.7649 28.0708 8.18538C27.4791 7.56875 26.7557 7.09384 25.9546 6.79615C25.0169 6.45112 24.0295 6.26018 23.0308 6.23077H13.1446C12.1459 6.26018 11.1585 6.45112 10.2208 6.79615C9.45066 7.08707 8.75131 7.53862 8.16923 8.12077C7.5526 8.71245 7.07769 9.43586 6.78 10.2369C6.43359 11.1737 6.2479 12.1622 6.23077 13.1608V18.1038V23.0469C6.2479 24.0455 6.43359 25.034 6.78 25.9708C7.06729 26.7427 7.51931 27.4428 8.10462 28.0223C8.69629 28.6389 9.41971 29.1139 10.2208 29.4115C11.1585 29.7566 12.1459 29.9475 13.1446 29.9769H23.0308C24.0295 29.9475 25.0169 29.7566 25.9546 29.4115C26.7295 29.0979 27.4334 28.6317 28.0245 28.0406C28.6156 27.4496 29.0818 26.7456 29.3954 25.9708ZM26.552 9.65573C26.9452 10.049 27.2484 10.5228 27.4408 11.0446V11.0285C27.7188 11.7388 27.8612 12.4949 27.8608 13.2577V18.1038V22.95C27.8533 23.712 27.7111 24.4667 27.4408 25.1792C27.2484 25.701 26.9452 26.1749 26.552 26.5681C26.1587 26.9613 25.6849 27.2646 25.1631 27.4569C24.4506 27.7273 23.6959 27.8695 22.9338 27.8769H13.2415C12.5076 27.8522 11.7823 27.7104 11.0931 27.4569C10.5713 27.2646 10.0974 26.9613 9.70419 26.5681C9.31096 26.1749 9.00772 25.701 8.81539 25.1792C8.55332 24.4644 8.4114 23.7112 8.39538 22.95V13.2577C8.38542 12.501 8.50002 11.7479 8.73462 11.0285C8.93664 10.5216 9.24423 10.0636 9.63694 9.68479C10.0297 9.306 10.4985 9.01514 11.0123 8.83154C11.7248 8.56118 12.4795 8.41899 13.2415 8.41154H22.9338C23.692 8.39828 24.4466 8.51857 25.1631 8.76692C25.6849 8.95926 26.1587 9.2625 26.552 9.65573ZM15.7287 23.8046C16.4765 24.1149 17.2781 24.2746 18.0877 24.2746C19.3088 24.2778 20.5035 23.9186 21.5204 23.2425C22.5373 22.5664 23.3307 21.6038 23.8002 20.4765C24.2698 19.3492 24.3943 18.108 24.158 16.9099C23.9217 15.7118 23.3353 14.6108 22.473 13.7462C21.6106 12.8816 20.5111 12.2923 19.3137 12.0529C18.1162 11.8134 16.8746 11.9347 15.7461 12.4013C14.6176 12.8678 13.6529 13.6588 12.9742 14.6739C12.2954 15.689 11.9331 16.8827 11.9331 18.1038C11.931 18.9134 12.0886 19.7155 12.3969 20.4641C12.7053 21.2127 13.1583 21.893 13.73 22.4663C14.3017 23.0395 14.9809 23.4943 15.7287 23.8046ZM23.6215 12.6713C23.8617 12.9382 24.1921 13.1068 24.5492 13.1446C24.9063 13.1068 25.2368 12.9382 25.477 12.6713C25.7172 12.4043 25.85 12.0579 25.85 11.6988C25.85 11.3398 25.7172 10.9934 25.477 10.7264C25.2368 10.4595 24.9063 10.2909 24.5492 10.2531C24.1921 10.2909 23.8617 10.4595 23.6215 10.7264C23.3813 10.9934 23.2484 11.3398 23.2484 11.6988C23.2484 12.0579 23.3813 12.4043 23.6215 12.6713Z" fill="url(#paint0_linear_641_10572)"/>
<defs>
<linearGradient id="paint0_linear_641_10572" x1="20.16" y1="-4.46396" x2="22.32" y2="49.104" gradientUnits="userSpaceOnUse">
<stop stop-color="#8C1CBD"/>
<stop offset="0.430201" stop-color="#EB1F80"/>
<stop offset="0.751125" stop-color="#FEA330"/>
<stop offset="1" stop-color="#FADE03"/>
</linearGradient>
</defs>
</svg>
