<svg width="36" height="36" viewBox="0 0 36 36" fill="none" xmlns="http://www.w3.org/2000/svg">
<rect width="36" height="36" rx="18" fill="#ED1E24"/>
<path d="M27.5879 13.1912C27.3575 12.3344 26.6819 11.6589 25.8252 11.4282C24.2602 11 17.9998 11 17.9998 11C17.9998 11 11.7396 11 10.1746 11.412C9.33435 11.6425 8.64234 12.3345 8.41187 13.1912C8 14.7561 8 18.0016 8 18.0016C8 18.0016 8 21.2634 8.41187 22.812C8.64258 23.6687 9.31787 24.3441 10.1747 24.5749C11.7561 25.0032 18 25.0032 18 25.0032C18 25.0032 24.2602 25.0032 25.8252 24.5912C26.682 24.3606 27.3575 23.6852 27.5882 22.8285C27.9999 21.2634 27.9999 18.0181 27.9999 18.0181C27.9999 18.0181 28.0164 14.7561 27.5879 13.1912V13.1912ZM16.0066 20.9999V15.0033L21.2124 18.0016L16.0066 20.9999Z" fill="white"/>
</svg>
